<?xml version="1.0" encoding="utf-8"?>
<!-- Generator: Adobe Illustrator 16.0.0, SVG Export Plug-In . SVG Version: 6.00 Build 0)  -->
<!DOCTYPE svg PUBLIC "-//W3C//DTD SVG 1.1//EN" "http://www.w3.org/Graphics/SVG/1.1/DTD/svg11.dtd">
<svg version="1.1" id="Layer_1" xmlns="http://www.w3.org/2000/svg" xmlns:xlink="http://www.w3.org/1999/xlink" x="0px" y="0px"
	 width="638.552px" height="206.672px" viewBox="0 0 638.552 206.672" enable-background="new 0 0 638.552 206.672"
	 xml:space="preserve">
<g>
	<path fill="#FDD835" d="M197.2,135.176c-1.081-0.78-2.618-1.169-4.608-1.169h-23.767l-2.728,6.754
		c-0.866,2.164-1.904,3.658-3.116,4.48c-1.213,0.823-2.771,1.232-4.675,1.232c-1.646,0-2.728-0.475-3.248-1.428
		c-0.52-0.952-0.13-3.072,1.168-6.363l11.429-29.352c0.953-2.249,1.882-3.786,2.793-4.609c0.908-0.822,2.445-1.235,4.61-1.235
		c1.559,0,2.662,0.542,3.311,1.624c0.649,1.084,0.627,2.403-0.065,3.96l-3.116,8.443h22.727c2.251,0,4.285-0.39,6.103-1.168
		c1.82-0.78,3.072-2.208,3.767-4.286c0.174-0.52,0.259-0.909,0.259-1.17c2.341-9.955,1.188-17.618-3.441-22.987
		c-4.631-5.365-12.144-8.051-22.532-8.051h-5.714c-9.177,0-16.969,2.532-23.375,7.598c-6.41,5.065-11.257,11.796-14.546,20.195
		c-1.734,4.241-3.205,7.966-4.417,11.167c-1.213,3.203-2.252,5.932-3.117,8.182c-0.952,2.598-1.819,4.893-2.597,6.883
		c-2.599,6.408-3.767,11.754-3.508,16.039c0.26,4.287,1.429,7.729,3.508,10.324c2.078,2.599,4.806,4.438,8.181,5.521
		c3.377,1.08,6.925,1.623,10.65,1.623h13.116c4.587,0,8.635-0.283,12.142-0.846c3.506-0.564,6.667-1.773,9.481-3.635
		c2.811-1.861,5.41-4.566,7.791-8.119c2.381-3.549,4.826-8.266,7.337-14.152l0.521-1.3
		C198.389,137.341,198.283,135.954,197.2,135.176z"/>
	<path fill="#FDD835" d="M277.72,134.786c0.561-1.385,1.103-2.728,1.623-4.027c0.519-1.299,1.104-2.791,1.752-4.479
		c0.65-1.688,1.578-4.046,2.793-7.077c2.422-6.234,3.657-11.797,3.7-16.688c0.044-4.891-0.973-9.027-3.052-12.402
		c-2.076-3.377-5.15-5.93-9.22-7.663c-4.068-1.732-9.004-2.598-14.804-2.598h-5.844c-9.18,0-16.948,2.532-23.311,7.598
		c-6.363,5.065-11.233,11.796-14.61,20.195c-1.733,4.241-3.204,7.966-4.417,11.167c-1.213,3.203-2.253,5.932-3.117,8.182
		c-0.952,2.598-1.818,4.893-2.597,6.883c-2.598,6.408-3.766,11.754-3.504,16.039c0.257,4.287,1.426,7.729,3.504,10.324
		c2.078,2.599,4.827,4.438,8.246,5.521c3.419,1.08,6.991,1.623,10.715,1.623h12.986c4.589,0,8.637-0.283,12.142-0.846
		c3.509-0.564,6.667-1.773,9.482-3.635c2.812-1.861,5.41-4.566,7.792-8.119c2.382-3.549,4.827-8.266,7.337-14.152
		C276.357,138.118,277.155,136.171,277.72,134.786z M256.745,109.07l-12.207,31.69c-0.867,2.164-1.929,3.658-3.182,4.48
		c-1.257,0.823-2.836,1.232-4.741,1.232c-1.646,0-2.728-0.475-3.245-1.428c-0.52-0.952-0.132-3.072,1.168-6.363l11.428-29.352
		c0.953-2.249,1.904-3.786,2.859-4.609c0.949-0.822,2.509-1.235,4.674-1.235c1.47,0,2.552,0.542,3.246,1.624
		C257.438,106.194,257.438,107.514,256.745,109.07z"/>
	<path fill="#FDD835" d="M387.002,81.409l-22.728,55.715c-0.605,1.473-1.667,2.771-3.182,3.895
		c-1.516,1.127-3.009,1.689-4.481,1.689c-1.471,0-2.51-0.563-3.115-1.689c-0.607-1.123-0.565-2.422,0.129-3.895l21.43-55.715
		h-28.442l-22.726,55.715c-0.609,1.473-1.668,2.771-3.182,3.895c-1.516,1.127-3.011,1.689-4.481,1.689
		c-1.475,0-2.513-0.563-3.117-1.689c-0.607-1.123-0.564-2.422,0.131-3.895l20.649-55.715h-27.663l-33.507,84.545h37.532
		c4.5,0,8.572-0.52,12.208-1.559c3.637-1.038,6.884-2.336,9.74-3.895c1.991,1.643,4.48,2.965,7.467,3.96
		c2.986,0.997,6.645,1.493,10.974,1.493h1.429h29.609l33.508-84.545H387.002z"/>
	<path fill="#FDD835" d="M435.572,64.138c-1.992,0-3.854,0.563-5.584,1.688c-1.732,1.124-3.032,2.684-3.896,4.674l-38.96,95.454
		h27.921L456.61,64.138H435.572z"/>
	<path fill="#FDD835" d="M492.584,64.008h-21.039c-1.993,0-3.855,0.583-5.584,1.752c-1.732,1.169-3.031,2.749-3.896,4.739
		l-1.689,4.416h27.791L492.584,64.008z"/>
	<polygon fill="#FDD835" points="457.777,81.409 423.361,165.954 451.154,165.954 485.57,81.409 	"/>
	<path fill="#FDD835" d="M551.411,100.889c0.261-2.683,0-5.214-0.778-7.596c-0.78-2.38-2.253-4.436-4.418-6.168
		c-2.163-1.73-5.109-3.118-8.829-4.156c-3.724-1.04-8.399-1.56-14.025-1.56h-30.651l-34.022,84.545h28.31l22.728-55.844
		c0.691-1.471,1.796-2.77,3.313-3.896c1.512-1.123,3.005-1.688,4.479-1.688c1.471,0,2.488,0.564,3.051,1.688
		c0.563,1.127,0.541,2.426-0.063,3.896l-20.779,55.844h27.661l22.856-58.182C551.022,105.609,551.411,103.314,551.411,100.889z"/>
	<path fill="#FDD835" d="M594.138,81.409c-9.181,0-16.972,2.534-23.377,7.598c-6.407,5.064-11.257,11.798-14.546,20.194
		c-1.731,4.156-3.182,7.793-4.351,10.909c-1.169,3.117-2.144,5.672-2.923,7.662c-0.951,2.426-1.729,4.461-2.338,6.104
		c-2.598,6.408-3.766,11.754-3.505,16.039c0.259,4.287,1.429,7.729,3.505,10.324c2.078,2.599,4.826,4.438,8.248,5.521
		c3.419,1.08,6.99,1.623,10.713,1.623h10.78l-16.624,27.271c5.714,1.213,11.299,1.038,16.754-0.521
		c2.337-0.606,4.782-1.557,7.337-2.856c2.554-1.3,5.065-3.053,7.534-5.26c2.465-2.208,4.868-4.957,7.204-8.246
		c2.341-3.291,4.504-7.23,6.495-11.818l33.507-84.545H594.138z M596.085,110.63l-11.559,30.131c-0.866,2.164-1.929,3.658-3.183,4.48
		c-1.255,0.823-2.836,1.232-4.739,1.232c-1.647,0-2.728-0.475-3.247-1.428c-0.52-0.952-0.13-3.072,1.168-6.363l10.911-27.924
		c0.95-2.162,1.882-3.655,2.79-4.479c0.911-0.822,2.446-1.234,4.611-1.234c1.558,0,2.662,0.541,3.313,1.624
		C596.799,107.753,596.777,109.07,596.085,110.63z"/>
	<g>
		<path fill="#FDD835" d="M184.192,25.52c3.324,0,6.198,0.451,8.624,1.35c2.423,0.902,4.294,2.171,5.611,3.811
			c1.315,1.639,2.042,3.625,2.181,5.956c0.138,2.333-0.37,4.93-1.524,7.793h-12.258c-0.878,0-1.617-0.184-2.217-0.554
			c-0.601-0.37-0.786-1.04-0.556-2.01c0.093-0.185,0.197-0.472,0.313-0.865c0.116-0.393,0.196-0.635,0.243-0.728
			c0.277-1.015,0.37-1.87,0.277-2.563c-0.093-0.693-0.601-1.04-1.524-1.04c-1.154,0-2.009,0.255-2.563,0.762
			c-0.553,0.51-0.946,1.039-1.177,1.592c-0.602,1.295-0.567,2.403,0.104,3.326c0.668,0.924,1.65,1.801,2.942,2.634
			c1.294,0.83,2.714,1.673,4.261,2.526c1.547,0.856,2.898,1.86,4.053,3.014c1.151,1.154,1.95,2.528,2.387,4.122
			c0.44,1.593,0.173,3.52-0.795,5.782c-0.923,2.217-1.974,4.077-3.151,5.577c-1.178,1.5-2.575,2.712-4.19,3.637
			c-1.616,0.924-3.498,1.581-5.646,1.974c-2.146,0.391-4.675,0.589-7.584,0.589c-3.325,0-6.198-0.44-8.623-1.316
			c-2.424-0.876-4.294-2.135-5.61-3.774c-1.318-1.639-2.055-3.625-2.217-5.957c-0.161-2.332,0.359-4.954,1.559-7.861h12.191
			c1.015,0,1.776,0.231,2.286,0.692c0.507,0.462,0.554,1.431,0.138,2.909c-0.093,0.37-0.161,0.646-0.208,0.831
			c-0.23,0.923-0.29,1.708-0.174,2.355c0.115,0.646,0.613,0.969,1.49,0.969c1.708,0,2.862-0.714,3.464-2.146
			c0.554-1.247,0.508-2.332-0.139-3.256c-0.646-0.923-1.604-1.8-2.875-2.633c-1.27-0.83-2.655-1.684-4.156-2.562
			c-1.5-0.876-2.815-1.906-3.948-3.082c-1.131-1.179-1.916-2.574-2.355-4.191c-0.438-1.615-0.172-3.577,0.796-5.887
			c0.877-2.216,1.906-4.076,3.082-5.576c1.177-1.5,2.587-2.712,4.227-3.636c1.637-0.924,3.532-1.581,5.678-1.975
			C178.754,25.717,181.283,25.52,184.192,25.52z"/>
		<path fill="#FDD835" d="M235.24,32.03l-4.781,11.776h-12.328l-11.222,27.636h-14.89l20.779-50.909
			c0.367-0.923,1.048-1.732,2.043-2.424c0.992-0.693,2.019-1.038,3.082-1.038h11.151L222.91,32.03H235.24z"/>
		<path fill="#FDD835" d="M266.581,26.594c2.01,0.716,3.624,1.778,4.848,3.187c1.221,1.407,2.009,3.127,2.355,5.16
			c0.345,2.032,0.218,4.363-0.38,6.996l-0.209,0.554c-0.601,1.985-1.397,3.764-2.389,5.333c-0.994,1.569-2.298,2.908-3.914,4.016
			c-1.617,1.108-3.591,1.986-5.922,2.632c-2.332,0.647-5.114,1.017-8.345,1.109l4.847-14.476c0.369-0.832,0.381-1.534,0.034-2.113
			c-0.345-0.576-0.934-0.866-1.767-0.866c-1.153,0-1.986,0.22-2.493,0.658c-0.508,0.439-0.992,1.258-1.454,2.46l-6.439,16.416
			c-0.511,1.431-0.59,2.355-0.244,2.769c0.345,0.416,0.911,0.624,1.695,0.624c2.218,0,4.629-0.023,7.238-0.069
			c2.609-0.044,5.206-0.392,7.792-1.038h0.139c0.046,0,0.071-0.011,0.071-0.036c0-0.022,0.022-0.033,0.068-0.033
			c0.416-0.092,0.889-0.163,1.419-0.208c0.531-0.044,1.005-0.022,1.42,0.069c0.415,0.092,0.716,0.266,0.901,0.52
			c0.184,0.254,0.163,0.658-0.069,1.211c0,0.094-0.035,0.198-0.103,0.312c-0.07,0.116-0.106,0.198-0.106,0.242
			c-1.154,2.217-2.319,3.997-3.496,5.335c-1.179,1.339-2.46,2.366-3.845,3.081c-1.385,0.717-2.921,1.189-4.605,1.42
			c-1.688,0.23-3.613,0.347-5.784,0.347h-6.996c-1.986,0-3.878-0.29-5.678-0.866c-1.8-0.577-3.256-1.559-4.366-2.944
			c-1.106-1.386-1.731-3.22-1.87-5.507c-0.138-2.285,0.464-5.136,1.801-8.555c0.416-1.061,0.877-2.286,1.385-3.671
			c0.461-1.2,1.028-2.655,1.696-4.363c0.67-1.708,1.466-3.693,2.391-5.957c1.754-4.478,4.34-8.07,7.757-10.771
			c3.417-2.702,7.572-4.052,12.467-4.052h3.047C262.205,25.52,264.57,25.877,266.581,26.594z"/>
		<path fill="#FDD835" d="M325.486,26.352l-35.394,45.09h-16.621l5.263-45.09h11.081c0.97,0,1.732,0.255,2.287,0.761
			c0.555,0.51,0.762,1.293,0.623,2.355l0.071-0.069l-2.356,20.503l16.97-21.749c0.368-0.462,0.855-0.877,1.453-1.247
			c0.6-0.37,1.202-0.555,1.801-0.555H325.486z"/>
		<path fill="#FDD835" d="M350.734,26.594c2.007,0.716,3.623,1.778,4.849,3.187c1.222,1.407,2.008,3.127,2.353,5.16
			c0.348,2.032,0.219,4.363-0.38,6.996l-0.208,0.554c-0.602,1.985-1.396,3.764-2.39,5.333s-2.298,2.908-3.911,4.016
			c-1.617,1.108-3.594,1.986-5.924,2.632c-2.332,0.647-5.115,1.017-8.346,1.109l4.848-14.476c0.37-0.832,0.381-1.534,0.035-2.113
			c-0.348-0.576-0.934-0.866-1.768-0.866c-1.155,0-1.984,0.22-2.492,0.658c-0.51,0.439-0.994,1.258-1.455,2.46l-6.442,16.416
			c-0.507,1.431-0.589,2.355-0.241,2.769c0.346,0.416,0.912,0.624,1.697,0.624c2.215,0,4.629-0.023,7.237-0.069
			c2.606-0.044,5.206-0.392,7.793-1.038h0.139c0.044,0,0.069-0.011,0.069-0.036c0-0.022,0.021-0.033,0.068-0.033
			c0.415-0.092,0.89-0.163,1.418-0.208c0.532-0.044,1.006-0.022,1.423,0.069c0.415,0.092,0.714,0.266,0.899,0.52
			c0.184,0.254,0.161,0.658-0.068,1.211c0,0.094-0.035,0.198-0.105,0.312c-0.069,0.116-0.102,0.198-0.102,0.242
			c-1.156,2.217-2.32,3.997-3.498,5.335c-1.179,1.339-2.459,2.366-3.845,3.081c-1.386,0.717-2.923,1.189-4.606,1.42
			c-1.686,0.23-3.614,0.347-5.783,0.347h-6.996c-1.985,0-3.878-0.29-5.68-0.866c-1.801-0.577-3.256-1.559-4.363-2.944
			c-1.11-1.386-1.732-3.22-1.87-5.507c-0.139-2.285,0.46-5.136,1.799-8.555c0.418-1.061,0.88-2.286,1.387-3.671
			c0.462-1.2,1.025-2.655,1.698-4.363c0.667-1.708,1.464-3.693,2.388-5.957c1.755-4.478,4.34-8.07,7.76-10.771
			c3.415-2.702,7.569-4.052,12.465-4.052h3.047C346.357,25.52,348.725,25.877,350.734,26.594z"/>
	</g>
	<g>
		<path fill="#FDD835" d="M23.066,198.718c0.197,0.013,0.335,0.06,0.416,0.138c0.079,0.079,0.118,0.165,0.118,0.257
			c0,0.107-0.039,0.197-0.118,0.278c-0.08,0.078-0.172,0.118-0.277,0.118h-0.061c-1.107-0.093-2.077-0.55-2.908-1.367
			c-0.924-0.935-1.386-2.059-1.386-3.363v-7.914c0-1.307,0.465-2.426,1.396-3.355c0.93-0.931,2.048-1.396,3.353-1.396h4.355
			c0.104,0,0.196,0.04,0.276,0.119c0.079,0.08,0.119,0.172,0.119,0.277v17.811h-0.021v0.813c0,1.305-0.465,2.424-1.393,3.353
			c-0.932,0.931-2.05,1.396-3.355,1.396c-1.307,0-2.421-0.461-3.344-1.386c-0.105-0.104-0.159-0.216-0.159-0.335
			c0-0.106,0.04-0.198,0.119-0.277c0.079-0.078,0.171-0.119,0.277-0.119c0.106,0,0.21,0.047,0.317,0.139
			c0.764,0.778,1.695,1.168,2.791,1.168c1.107,0,2.044-0.39,2.81-1.168c0.765-0.779,1.147-1.443,1.147-1.998h0.021v-18.998h-3.959
			c-1.095,0-2.028,0.387-2.798,1.158c-0.773,0.771-1.158,1.704-1.158,2.801v7.914c0,1.096,0.389,2.025,1.168,2.791
			C21.443,198.216,22.195,198.599,23.066,198.718z"/>
		<path fill="#FDD835" d="M36.661,199.151c0,0.107-0.041,0.198-0.118,0.277c-0.08,0.08-0.171,0.119-0.277,0.119
			c-0.105,0-0.198-0.039-0.277-0.119c-0.079-0.079-0.118-0.17-0.118-0.277v-13.08c0-1.082,0.388-2.012,1.166-2.792
			c0.779-0.778,1.709-1.167,2.792-1.167c0.119,0,0.217,0.04,0.297,0.119c0.078,0.08,0.117,0.172,0.117,0.277
			c0,0.106-0.039,0.197-0.117,0.276c-0.08,0.081-0.179,0.12-0.297,0.12c-0.884,0-1.633,0.307-2.246,0.92
			c-0.614,0.613-0.921,1.362-0.921,2.246V199.151z"/>
		<path fill="#FDD835" d="M49.722,199.528c-1.306,0-2.424-0.467-3.356-1.395c-0.928-0.932-1.394-2.051-1.394-3.355v-1.604
			c0-1.305,0.461-2.426,1.385-3.363c0.831-0.817,1.794-1.273,2.888-1.366c0.16,0,0.278,0.041,0.357,0.12
			c0.079,0.078,0.119,0.172,0.119,0.275c0,0.107-0.034,0.198-0.099,0.279c-0.081,0.08-0.159,0.117-0.239,0.117
			c-0.949,0.066-1.768,0.449-2.454,1.149c-0.778,0.765-1.167,1.693-1.167,2.788v1.604c0,1.096,0.387,2.029,1.158,2.801
			c0.771,0.771,1.705,1.157,2.8,1.157h3.957v-12.249c-0.012-1.096-0.402-2.027-1.167-2.801c-0.766-0.771-1.703-1.158-2.81-1.158
			c-1.082,0-2.031,0.396-2.85,1.188c-0.066,0.079-0.151,0.116-0.256,0.116c-0.106,0-0.198-0.037-0.278-0.116
			c-0.078-0.079-0.117-0.171-0.117-0.278c0-0.104,0.039-0.196,0.117-0.277c0.95-0.962,2.078-1.444,3.384-1.444
			s2.425,0.466,3.355,1.396c0.931,0.93,1.4,2.056,1.415,3.375v12.645c0,0.105-0.04,0.198-0.119,0.277
			c-0.079,0.08-0.171,0.119-0.276,0.119H49.722z"/>
		<path fill="#FDD835" d="M66.325,198.756c0.936-0.079,1.741-0.462,2.414-1.147c0.78-0.765,1.167-1.695,1.167-2.791v-7.935
			c0-1.096-0.386-2.028-1.157-2.802c-0.772-0.771-1.705-1.156-2.8-1.156H61.99v23.35c0,0.107-0.039,0.199-0.118,0.278
			c-0.08,0.081-0.17,0.119-0.278,0.119c-0.104,0-0.198-0.038-0.277-0.119c-0.079-0.079-0.119-0.171-0.119-0.278v-23.746
			c0-0.104,0.04-0.197,0.119-0.276c0.079-0.08,0.173-0.118,0.277-0.118h4.354c1.305,0,2.425,0.466,3.354,1.395
			c0.931,0.932,1.396,2.049,1.396,3.354v7.935c0,1.308-0.462,2.429-1.387,3.366c-0.831,0.829-1.799,1.285-2.908,1.364
			c-0.145,0-0.257-0.039-0.335-0.119c-0.08-0.079-0.12-0.17-0.12-0.277c0-0.104,0.04-0.198,0.12-0.276
			C66.146,198.797,66.231,198.756,66.325,198.756z"/>
		<path fill="#FDD835" d="M78.613,182.925v16.207c0,0.105-0.039,0.198-0.118,0.277c-0.08,0.08-0.171,0.119-0.278,0.119
			c-0.104,0-0.196-0.039-0.277-0.119c-0.078-0.079-0.119-0.172-0.119-0.277v-23.746c0-0.105,0.041-0.199,0.119-0.277
			c0.081-0.078,0.172-0.119,0.277-0.119c0.107,0,0.199,0.041,0.278,0.119c0.079,0.078,0.118,0.172,0.118,0.277v6.748h3.958
			c1.307,0,2.424,0.466,3.355,1.395c0.931,0.932,1.394,2.049,1.394,3.354v12.249c0,0.105-0.039,0.198-0.116,0.277
			c-0.081,0.08-0.172,0.119-0.279,0.119c-0.107,0-0.199-0.039-0.276-0.119c-0.081-0.079-0.119-0.172-0.119-0.277v-12.249
			c0-1.096-0.387-2.028-1.158-2.802c-0.772-0.771-1.706-1.156-2.801-1.156H78.613z"/>
		<path fill="#FDD835" d="M95.731,176.019c0.158,0.158,0.238,0.344,0.238,0.555c0,0.209-0.08,0.396-0.238,0.553
			c-0.159,0.158-0.344,0.238-0.555,0.238c-0.211,0-0.396-0.08-0.554-0.238c-0.159-0.157-0.237-0.344-0.237-0.553
			c0-0.211,0.078-0.396,0.237-0.555c0.159-0.158,0.343-0.237,0.554-0.237C95.388,175.781,95.573,175.86,95.731,176.019z
			 M95.573,199.132c0,0.105-0.039,0.198-0.118,0.277c-0.08,0.08-0.172,0.119-0.278,0.119c-0.105,0-0.197-0.039-0.277-0.119
			c-0.078-0.079-0.118-0.172-0.118-0.277v-16.623c0-0.105,0.04-0.197,0.118-0.277c0.081-0.079,0.172-0.119,0.277-0.119
			c0.105,0,0.198,0.04,0.278,0.119c0.079,0.08,0.118,0.172,0.118,0.277V199.132z"/>
		<path fill="#FDD835" d="M110.297,197.964c0.118-0.104,0.229-0.157,0.335-0.157c0.106,0,0.198,0.038,0.277,0.12
			c0.08,0.078,0.119,0.168,0.119,0.275c0,0.117-0.06,0.236-0.179,0.355c-0.922,0.924-2.037,1.387-3.344,1.387
			c-1.305,0-2.424-0.465-3.354-1.396c-0.93-0.93-1.394-2.047-1.394-3.353v-8.749c0-1.305,0.464-2.424,1.394-3.353
			c0.93-0.931,2.049-1.397,3.354-1.397c1.307,0,2.422,0.464,3.344,1.387c0.119,0.119,0.179,0.237,0.179,0.355
			c0,0.107-0.039,0.199-0.119,0.278c-0.079,0.079-0.17,0.116-0.277,0.116c-0.106,0-0.217-0.052-0.335-0.156
			c-0.766-0.779-1.697-1.168-2.792-1.168c-1.106,0-2.044,0.389-2.808,1.168c-0.766,0.779-1.149,1.709-1.149,2.791v8.707
			c0,1.081,0.383,2.013,1.149,2.789c0.764,0.78,1.702,1.168,2.808,1.168C108.6,199.132,109.531,198.744,110.297,197.964z"/>
		<path fill="#FDD835" d="M131.291,182.905c-0.937,0.078-1.741,0.463-2.413,1.146c-0.78,0.766-1.168,1.697-1.168,2.79v7.937
			c0,1.096,0.387,2.029,1.157,2.801c0.774,0.771,1.706,1.157,2.802,1.157h3.957v-23.351c0-0.105,0.041-0.199,0.119-0.277
			c0.08-0.078,0.172-0.119,0.278-0.119c0.105,0,0.198,0.041,0.276,0.119c0.081,0.078,0.12,0.172,0.12,0.277v23.746
			c0,0.105-0.039,0.198-0.12,0.277c-0.078,0.08-0.171,0.119-0.276,0.119h-4.354c-1.307,0-2.424-0.467-3.355-1.395
			c-0.93-0.932-1.395-2.051-1.395-3.355v-7.937c0-1.304,0.461-2.425,1.385-3.364c0.831-0.829,1.8-1.285,2.91-1.365
			c0.144,0,0.256,0.04,0.336,0.119c0.079,0.08,0.119,0.172,0.119,0.277c0,0.106-0.04,0.197-0.119,0.276
			C131.47,182.866,131.385,182.905,131.291,182.905z"/>
		<path fill="#FDD835" d="M148.667,191.612c-0.107,0-0.198-0.04-0.277-0.119c-0.08-0.079-0.12-0.172-0.12-0.277
			c0-0.104,0.04-0.197,0.12-0.275c0.079-0.08,0.17-0.119,0.277-0.119h3.561v-4.354c0-1.097-0.383-2.029-1.156-2.8
			c-0.772-0.772-1.707-1.159-2.801-1.159s-2.028,0.387-2.799,1.159c-0.771,0.771-1.158,1.703-1.158,2.8v8.707
			c0,1.081,0.384,2.013,1.147,2.789c0.764,0.78,1.702,1.168,2.81,1.168c1.095,0,2.025-0.388,2.791-1.168
			c0.105-0.092,0.211-0.138,0.317-0.138c0.106,0,0.199,0.039,0.277,0.118c0.079,0.08,0.119,0.172,0.119,0.278
			c0,0.118-0.052,0.231-0.158,0.335c-0.925,0.924-2.039,1.387-3.345,1.387c-1.305,0-2.424-0.465-3.353-1.396
			c-0.931-0.93-1.397-2.047-1.397-3.353v-8.728c0-1.308,0.466-2.426,1.397-3.355c0.929-0.93,2.048-1.396,3.353-1.396
			c1.306,0,2.423,0.466,3.355,1.396c0.93,0.93,1.396,2.048,1.396,3.355v4.748c0,0.092-0.04,0.178-0.119,0.259
			c-0.08,0.091-0.179,0.138-0.298,0.138H148.667z"/>
		<path fill="#FDD835" d="M166.656,183.677c0,0.104-0.04,0.199-0.12,0.275c-0.079,0.068-0.158,0.1-0.238,0.1
			c-0.145,0-0.284-0.072-0.416-0.219c-0.739-0.762-1.681-1.192-2.829-1.284c-0.172-0.015-0.338-0.021-0.495-0.021
			c-0.963,0-1.703,0.245-2.217,0.731c-0.805,0.568-1.227,1.434-1.267,2.594c0,1.663,1.49,3.272,4.474,4.829
			c2.399,1.227,3.601,2.851,3.601,4.867c-0.039,1.426-0.484,2.514-1.336,3.267c-0.85,0.753-1.942,1.128-3.274,1.128
			c-1.439-0.04-2.605-0.542-3.504-1.506c-0.118-0.131-0.177-0.255-0.177-0.375c0-0.105,0.038-0.198,0.116-0.275
			c0.08-0.067,0.16-0.101,0.24-0.101c0.145,0,0.29,0.085,0.434,0.257c0.765,0.74,1.709,1.143,2.833,1.207h0.354
			c0.938,0,1.716-0.224,2.335-0.672c0.819-0.738,1.24-1.735,1.267-2.99v-0.078c0-1.753-1.459-3.383-4.374-4.888
			c-2.467-1.345-3.699-2.913-3.699-4.71c0.037-1.293,0.506-2.295,1.404-3.008c0.87-0.672,1.927-1.01,3.167-1.01h0.235
			c1.307,0.053,2.402,0.555,3.287,1.504C166.59,183.446,166.656,183.569,166.656,183.677z"/>
		<path fill="#FDD835" d="M174.492,176.019c0.158,0.158,0.237,0.344,0.237,0.555c0,0.209-0.079,0.396-0.237,0.553
			c-0.159,0.158-0.344,0.238-0.553,0.238c-0.211,0-0.397-0.08-0.556-0.238c-0.159-0.157-0.237-0.344-0.237-0.553
			c0-0.211,0.078-0.396,0.237-0.555c0.158-0.158,0.344-0.237,0.556-0.237C174.148,175.781,174.333,175.86,174.492,176.019z
			 M174.333,199.132c0,0.105-0.039,0.198-0.118,0.277c-0.081,0.08-0.171,0.119-0.276,0.119c-0.108,0-0.198-0.039-0.279-0.119
			c-0.08-0.079-0.119-0.172-0.119-0.277v-16.623c0-0.105,0.039-0.197,0.119-0.277c0.081-0.079,0.171-0.119,0.279-0.119
			c0.104,0,0.195,0.04,0.276,0.119c0.079,0.08,0.118,0.172,0.118,0.277V199.132z"/>
		<path fill="#FDD835" d="M185.733,198.718c0.198,0.013,0.336,0.06,0.416,0.138c0.079,0.079,0.119,0.165,0.119,0.257
			c0,0.107-0.04,0.197-0.119,0.278c-0.079,0.078-0.171,0.118-0.277,0.118h-0.061c-1.106-0.093-2.077-0.55-2.909-1.367
			c-0.923-0.935-1.385-2.059-1.385-3.363v-7.914c0-1.307,0.465-2.426,1.395-3.355c0.932-0.931,2.048-1.396,3.355-1.396h4.354
			c0.104,0,0.197,0.04,0.277,0.119c0.08,0.08,0.117,0.172,0.117,0.277v17.811h-0.02v0.813c0,1.305-0.464,2.424-1.394,3.353
			c-0.932,0.931-2.049,1.396-3.355,1.396s-2.419-0.461-3.344-1.386c-0.105-0.104-0.158-0.216-0.158-0.335
			c0-0.106,0.04-0.198,0.119-0.277c0.079-0.078,0.171-0.119,0.276-0.119c0.106,0,0.21,0.047,0.318,0.139
			c0.764,0.778,1.696,1.168,2.79,1.168c1.107,0,2.045-0.39,2.812-1.168c0.764-0.779,1.146-1.443,1.146-1.998h0.02v-18.998h-3.958
			c-1.095,0-2.028,0.387-2.8,1.158c-0.772,0.771-1.157,1.704-1.157,2.801v7.914c0,1.096,0.389,2.025,1.167,2.791
			C184.111,198.216,184.863,198.599,185.733,198.718z"/>
		<path fill="#FDD835" d="M199.723,199.132c0,0.105-0.04,0.198-0.12,0.277c-0.078,0.08-0.171,0.119-0.277,0.119
			c-0.104,0-0.197-0.039-0.276-0.119c-0.079-0.079-0.119-0.172-0.119-0.277v-16.623c0-0.105,0.04-0.197,0.119-0.277
			c0.079-0.079,0.171-0.119,0.276-0.119h4.356c1.304,0,2.422,0.466,3.353,1.396c0.929,0.93,1.395,2.049,1.395,3.355v12.268
			c0,0.105-0.039,0.198-0.119,0.277c-0.079,0.08-0.17,0.119-0.277,0.119c-0.104,0-0.196-0.039-0.276-0.119
			c-0.079-0.079-0.119-0.172-0.119-0.277v-12.268c0-1.097-0.385-2.03-1.158-2.801c-0.771-0.771-1.705-1.158-2.799-1.158h-3.959
			V199.132z"/>
		<path fill="#FDD835" d="M220.305,191.612c-0.106,0-0.199-0.04-0.278-0.119c-0.078-0.079-0.117-0.172-0.117-0.277
			c0-0.104,0.039-0.197,0.117-0.275c0.08-0.08,0.172-0.119,0.278-0.119h3.561v-4.354c0-1.097-0.384-2.029-1.156-2.8
			c-0.773-0.772-1.707-1.159-2.8-1.159c-1.096,0-2.029,0.387-2.802,1.159c-0.771,0.771-1.156,1.703-1.156,2.8v8.707
			c0,1.081,0.383,2.013,1.147,2.789c0.764,0.78,1.704,1.168,2.811,1.168c1.094,0,2.025-0.388,2.789-1.168
			c0.106-0.092,0.212-0.138,0.319-0.138c0.104,0,0.197,0.039,0.276,0.118c0.078,0.08,0.119,0.172,0.119,0.278
			c0,0.118-0.055,0.231-0.158,0.335c-0.925,0.924-2.039,1.387-3.344,1.387c-1.306,0-2.424-0.465-3.355-1.396
			c-0.93-0.93-1.396-2.047-1.396-3.353v-8.728c0-1.308,0.466-2.426,1.396-3.355c0.931-0.93,2.049-1.396,3.355-1.396
			c1.305,0,2.424,0.466,3.355,1.396c0.928,0.93,1.394,2.048,1.394,3.355v4.748c0,0.092-0.039,0.178-0.118,0.259
			c-0.08,0.091-0.18,0.138-0.297,0.138H220.305z"/>
		<path fill="#FDD835" d="M231.782,199.151c0,0.107-0.04,0.198-0.12,0.277c-0.078,0.08-0.171,0.119-0.277,0.119
			s-0.198-0.039-0.277-0.119c-0.079-0.079-0.118-0.17-0.118-0.277v-13.08c0-1.082,0.388-2.012,1.167-2.792
			c0.778-0.778,1.709-1.167,2.792-1.167c0.116,0,0.216,0.04,0.295,0.119c0.078,0.08,0.12,0.172,0.12,0.277
			c0,0.106-0.042,0.197-0.12,0.276c-0.079,0.081-0.179,0.12-0.295,0.12c-0.885,0-1.635,0.307-2.248,0.92
			c-0.613,0.613-0.919,1.362-0.919,2.246V199.151z"/>
		<path fill="#FDD835" d="M259.329,182.648c-0.053,0.078-0.105,0.146-0.158,0.198c-0.093,0.078-0.192,0.117-0.297,0.117
			c-0.106,0-0.199-0.039-0.277-0.117c-0.08-0.082-0.118-0.172-0.118-0.278c0-0.093,0.059-0.21,0.178-0.356
			c0.342-0.447,0.58-0.797,0.712-1.048c0.33-0.542,0.495-1.147,0.495-1.821c0-0.988-0.345-1.83-1.039-2.523
			c-0.692-0.693-1.535-1.038-2.523-1.038c-0.989,0-1.829,0.351-2.514,1.049c-0.687,0.699-1.029,1.537-1.029,2.513
			c0,0.475,0.087,0.957,0.256,1.445c0.344,0.884,2.06,3.917,5.146,9.102c0.041,0.067,0.059,0.134,0.059,0.198
			c0,0.106-0.037,0.198-0.117,0.278c-0.081,0.079-0.171,0.119-0.277,0.119c-0.092,0-0.191-0.047-0.297-0.139
			c-0.04-0.041-0.072-0.092-0.099-0.158l-1.723-3.047l-3.462,4.333c-0.701,0.817-1.063,1.78-1.088,2.888
			c0,1.228,0.423,2.263,1.267,3.107s1.872,1.267,3.086,1.267c1.214,0,2.243-0.429,3.087-1.286c0.356-0.355,0.633-0.738,0.831-1.148
			l0.574-1.127l2.434-5.856c0.026-0.056,0.065-0.114,0.119-0.179c0.079-0.066,0.172-0.101,0.277-0.101
			c0.105,0,0.197,0.04,0.277,0.118c0.079,0.08,0.119,0.174,0.119,0.277c0,0.067-0.027,0.146-0.079,0.238l-2.217,5.085l2.376,4.177
			c0.038,0.066,0.06,0.139,0.06,0.217c0,0.107-0.041,0.198-0.12,0.277c-0.08,0.08-0.174,0.119-0.278,0.119
			c-0.105,0-0.198-0.047-0.277-0.139c-0.066-0.054-0.112-0.118-0.139-0.199l-1.882-3.324c-0.684,1.098-1.192,1.809-1.523,2.139
			c-1.016,1.002-2.228,1.504-3.641,1.504c-1.412,0-2.623-0.506-3.631-1.516c-1.01-1.008-1.514-2.218-1.514-3.629
			c0-1.229,0.381-2.304,1.147-3.227l3.779-4.789c-1.582-2.572-2.559-4.275-2.929-5.105c-0.278-0.581-0.415-1.22-0.415-1.92
			c0-1.199,0.426-2.227,1.276-3.078c0.851-0.849,1.877-1.275,3.078-1.275c1.198,0,2.226,0.427,3.077,1.275
			c0.852,0.852,1.277,1.879,1.277,3.078c0,0.926-0.245,1.742-0.732,2.453C259.778,182.009,259.578,182.292,259.329,182.648z"/>
		<path fill="#FDD835" d="M280.463,182.112h3.146c0.105,0,0.198,0.04,0.275,0.119c0.081,0.08,0.12,0.172,0.12,0.277
			c0,0.106-0.039,0.197-0.12,0.276c-0.077,0.081-0.17,0.12-0.275,0.12h-3.146v16.207c0,0.119-0.044,0.218-0.128,0.297
			c-0.085,0.08-0.183,0.119-0.288,0.119c-0.092,0-0.178-0.039-0.258-0.119c-0.079-0.079-0.12-0.172-0.12-0.277v-16.227h-0.808
			c-0.108,0-0.199-0.039-0.279-0.12c-0.08-0.079-0.118-0.17-0.118-0.276c0-0.105,0.038-0.197,0.118-0.277
			c0.08-0.079,0.17-0.119,0.279-0.119h0.808v-3.146c0-1.108,0.389-2.048,1.159-2.819c0.773-0.772,1.706-1.158,2.801-1.158
			c0.104,0,0.197,0.041,0.277,0.119c0.078,0.078,0.118,0.172,0.118,0.277s-0.04,0.197-0.118,0.275
			c-0.081,0.08-0.173,0.12-0.277,0.12c-0.897,0-1.649,0.31-2.256,0.929c-0.607,0.621-0.91,1.374-0.91,2.257V182.112z"/>
		<path fill="#FDD835" d="M289.565,199.151c0,0.107-0.038,0.198-0.118,0.277c-0.08,0.08-0.173,0.119-0.277,0.119
			c-0.106,0-0.199-0.039-0.278-0.119c-0.08-0.079-0.119-0.17-0.119-0.277v-13.08c0-1.082,0.391-2.012,1.167-2.792
			c0.78-0.778,1.711-1.167,2.792-1.167c0.12,0,0.217,0.04,0.296,0.119c0.08,0.08,0.119,0.172,0.119,0.277
			c0,0.106-0.039,0.197-0.119,0.276c-0.079,0.081-0.177,0.12-0.296,0.12c-0.884,0-1.634,0.307-2.248,0.92
			c-0.612,0.613-0.919,1.362-0.919,2.246V199.151z"/>
		<path fill="#FDD835" d="M300.251,182.093c0.106,0,0.199,0.041,0.278,0.119c0.079,0.08,0.12,0.172,0.12,0.277
			s-0.034,0.197-0.1,0.275c-0.052,0.041-0.086,0.068-0.099,0.082c-0.212,0.145-0.416,0.314-0.613,0.514
			c-0.78,0.765-1.168,1.695-1.168,2.791v9.32c0,1.094,0.389,2.023,1.168,2.79c0.197,0.198,0.415,0.376,0.653,0.535
			c0.013,0.012,0.025,0.02,0.039,0.02c0.079,0.092,0.12,0.19,0.12,0.296c0,0.107-0.041,0.197-0.12,0.278
			c-0.079,0.078-0.172,0.118-0.278,0.118c-0.092,0-0.171-0.02-0.237-0.06c-0.264-0.171-0.515-0.376-0.752-0.613
			c-0.923-0.937-1.385-2.059-1.385-3.364v-9.32c0-1.308,0.462-2.429,1.385-3.366c0.251-0.236,0.502-0.44,0.752-0.613
			C300.08,182.12,300.159,182.093,300.251,182.093z M304.903,182.905c-0.079-0.039-0.134-0.08-0.159-0.12
			c-0.093-0.079-0.139-0.17-0.139-0.276c0-0.105,0.039-0.197,0.118-0.277c0.08-0.079,0.172-0.119,0.277-0.119
			c0.107,0,0.191,0.027,0.258,0.08c0.25,0.172,0.494,0.37,0.731,0.593c0.924,0.938,1.386,2.059,1.386,3.366v9.32
			c0,1.306-0.462,2.428-1.386,3.364c-0.25,0.251-0.513,0.468-0.79,0.653c-0.053,0.025-0.119,0.039-0.2,0.039
			c-0.104,0-0.197-0.039-0.277-0.119c-0.079-0.079-0.118-0.172-0.118-0.277s0.039-0.204,0.118-0.296
			c0.028-0.027,0.046-0.039,0.06-0.039c0.211-0.146,0.422-0.323,0.634-0.535c0.779-0.767,1.167-1.696,1.167-2.79v-9.32
			c0-1.096-0.389-2.026-1.167-2.791C305.285,183.217,305.114,183.063,304.903,182.905z"/>
		<path fill="#FDD835" d="M315.289,199.132c0,0.105-0.037,0.198-0.115,0.277c-0.081,0.08-0.173,0.119-0.279,0.119
			c-0.104,0-0.197-0.039-0.277-0.119c-0.077-0.079-0.119-0.172-0.119-0.277v-16.623c0-0.105,0.042-0.197,0.119-0.277
			c0.08-0.079,0.173-0.119,0.277-0.119h4.355c1.306,0,2.423,0.466,3.354,1.396c0.932,0.93,1.394,2.049,1.394,3.355v12.268
			c0,0.105-0.039,0.198-0.119,0.277c-0.078,0.08-0.17,0.119-0.275,0.119c-0.107,0-0.199-0.039-0.277-0.119
			c-0.08-0.079-0.121-0.172-0.121-0.277v-12.268c0-1.097-0.385-2.03-1.155-2.801c-0.772-0.771-1.708-1.158-2.8-1.158h-3.961V199.132
			z"/>
		<path fill="#FDD835" d="M335.477,182.112c0.105,0,0.196,0.04,0.276,0.119c0.079,0.08,0.118,0.172,0.118,0.277
			c0,0.106-0.039,0.197-0.118,0.276c-0.08,0.081-0.171,0.12-0.276,0.12h-3.166v12.664c0,0.885,0.307,1.633,0.922,2.246
			c0.611,0.613,1.358,0.921,2.244,0.921c0.118,0,0.217,0.041,0.296,0.119c0.079,0.079,0.12,0.171,0.12,0.276
			s-0.041,0.198-0.12,0.277c-0.079,0.08-0.178,0.119-0.296,0.119c-1.084,0-2.013-0.389-2.791-1.169
			c-0.778-0.776-1.167-1.707-1.167-2.79v-12.664h-0.812c-0.105,0-0.197-0.039-0.277-0.12c-0.08-0.079-0.116-0.17-0.116-0.276
			c0-0.105,0.036-0.197,0.116-0.277c0.08-0.079,0.172-0.119,0.277-0.119h0.812v-4.332c0-0.105,0.039-0.199,0.12-0.278
			c0.078-0.079,0.17-0.119,0.276-0.119c0.104,0,0.196,0.04,0.276,0.119c0.078,0.079,0.119,0.173,0.119,0.278v4.332H335.477z"/>
		<path fill="#FDD835" d="M340.602,187.655c-0.107,0-0.198-0.041-0.277-0.117c-0.079-0.081-0.118-0.174-0.118-0.278
			c0-0.106,0.039-0.198,0.118-0.278s0.17-0.117,0.277-0.117h4.768c0.107,0,0.199,0.037,0.278,0.117s0.12,0.172,0.12,0.278
			c0,0.104-0.041,0.197-0.12,0.278c-0.079,0.076-0.171,0.117-0.278,0.117H340.602z"/>
		<path fill="#FDD835" d="M356.452,191.612c-0.106,0-0.198-0.04-0.278-0.119c-0.078-0.079-0.117-0.172-0.117-0.277
			c0-0.104,0.039-0.197,0.117-0.275c0.08-0.08,0.172-0.119,0.278-0.119h3.562v-4.354c0-1.097-0.385-2.029-1.158-2.8
			c-0.771-0.772-1.703-1.159-2.799-1.159c-1.095,0-2.029,0.387-2.801,1.159c-0.773,0.771-1.158,1.703-1.158,2.8v8.707
			c0,1.081,0.383,2.013,1.147,2.789c0.765,0.78,1.702,1.168,2.812,1.168c1.096,0,2.025-0.388,2.789-1.168
			c0.105-0.092,0.211-0.138,0.318-0.138c0.104,0,0.197,0.039,0.275,0.118c0.079,0.08,0.12,0.172,0.12,0.278
			c0,0.118-0.053,0.231-0.159,0.335c-0.924,0.924-2.039,1.387-3.344,1.387c-1.307,0-2.424-0.465-3.355-1.396
			c-0.93-0.93-1.396-2.047-1.396-3.353v-8.728c0-1.308,0.466-2.426,1.396-3.355c0.932-0.93,2.049-1.396,3.355-1.396
			c1.305,0,2.423,0.466,3.354,1.396c0.932,0.93,1.395,2.048,1.395,3.355v4.748c0,0.092-0.037,0.178-0.116,0.259
			c-0.081,0.091-0.181,0.138-0.3,0.138H356.452z"/>
		<path fill="#FDD835" d="M368.326,199.132c0,0.105-0.043,0.198-0.119,0.277c-0.078,0.08-0.173,0.119-0.278,0.119
			s-0.196-0.039-0.278-0.119c-0.079-0.079-0.115-0.172-0.115-0.277v-16.623c0-0.105,0.036-0.197,0.115-0.277
			c0.082-0.079,0.173-0.119,0.278-0.119h4.354c1.308,0,2.424,0.466,3.354,1.396c0.931,0.93,1.394,2.049,1.394,3.355v12.268
			c0,0.105-0.037,0.198-0.118,0.277c-0.078,0.08-0.171,0.119-0.274,0.119c-0.109,0-0.2-0.039-0.279-0.119
			c-0.08-0.079-0.118-0.172-0.118-0.277v-12.268c0-1.097-0.385-2.03-1.159-2.801c-0.771-0.771-1.705-1.158-2.799-1.158h-3.957
			V199.132z"/>
		<path fill="#FDD835" d="M388.154,182.905c-0.938,0.078-1.742,0.463-2.415,1.146c-0.778,0.766-1.17,1.697-1.17,2.79v7.937
			c0,1.096,0.388,2.029,1.158,2.801c0.772,0.771,1.706,1.157,2.802,1.157h3.958v-23.351c0-0.105,0.039-0.199,0.118-0.277
			c0.08-0.078,0.17-0.119,0.279-0.119c0.104,0,0.197,0.041,0.273,0.119c0.08,0.078,0.121,0.172,0.121,0.277v23.746
			c0,0.105-0.041,0.198-0.121,0.277c-0.076,0.08-0.17,0.119-0.273,0.119h-4.355c-1.306,0-2.425-0.467-3.354-1.395
			c-0.931-0.932-1.394-2.051-1.394-3.355v-7.937c0-1.304,0.459-2.425,1.383-3.364c0.832-0.829,1.801-1.285,2.912-1.365
			c0.145,0,0.255,0.04,0.335,0.119c0.079,0.08,0.118,0.172,0.118,0.277c0,0.106-0.039,0.197-0.118,0.276
			C388.331,182.866,388.245,182.905,388.154,182.905z"/>
		<path fill="#FDD835" d="M415.066,182.905c-0.938,0.078-1.741,0.463-2.414,1.146c-0.781,0.766-1.17,1.697-1.17,2.79v7.937
			c0,1.096,0.388,2.029,1.158,2.801c0.771,0.771,1.705,1.157,2.801,1.157h3.959v-23.351c0-0.105,0.038-0.199,0.118-0.277
			c0.079-0.078,0.17-0.119,0.278-0.119c0.104,0,0.198,0.041,0.274,0.119c0.079,0.078,0.12,0.172,0.12,0.277v23.746
			c0,0.105-0.041,0.198-0.12,0.277c-0.076,0.08-0.171,0.119-0.274,0.119h-4.355c-1.305,0-2.426-0.467-3.355-1.395
			c-0.93-0.932-1.394-2.051-1.394-3.355v-7.937c0-1.304,0.461-2.425,1.384-3.364c0.832-0.829,1.801-1.285,2.911-1.365
			c0.146,0,0.255,0.04,0.336,0.119c0.079,0.08,0.118,0.172,0.118,0.277c0,0.106-0.039,0.197-0.118,0.276
			C415.242,182.866,415.158,182.905,415.066,182.905z"/>
		<path fill="#FDD835" d="M432.439,191.612c-0.105,0-0.197-0.04-0.278-0.119c-0.077-0.079-0.118-0.172-0.118-0.277
			c0-0.104,0.041-0.197,0.118-0.275c0.081-0.08,0.173-0.119,0.278-0.119h3.563v-4.354c0-1.097-0.385-2.029-1.156-2.8
			c-0.773-0.772-1.706-1.159-2.803-1.159c-1.093,0-2.026,0.387-2.801,1.159c-0.771,0.771-1.154,1.703-1.154,2.8v8.707
			c0,1.081,0.381,2.013,1.145,2.789c0.768,0.78,1.703,1.168,2.811,1.168c1.097,0,2.026-0.388,2.791-1.168
			c0.105-0.092,0.211-0.138,0.317-0.138c0.105,0,0.198,0.039,0.276,0.118c0.078,0.08,0.121,0.172,0.121,0.278
			c0,0.118-0.057,0.231-0.16,0.335c-0.924,0.924-2.037,1.387-3.346,1.387c-1.305,0-2.423-0.465-3.354-1.396
			c-0.928-0.93-1.395-2.047-1.395-3.353v-8.728c0-1.308,0.467-2.426,1.395-3.355c0.931-0.93,2.049-1.396,3.354-1.396
			c1.309,0,2.426,0.466,3.355,1.396s1.395,2.048,1.395,3.355v4.748c0,0.092-0.038,0.178-0.117,0.259
			c-0.08,0.091-0.18,0.138-0.298,0.138H432.439z"/>
		<path fill="#FDD835" d="M446.707,199.151c-0.04,0.12-0.085,0.212-0.137,0.277c-0.08,0.066-0.174,0.1-0.277,0.1
			c-0.095,0-0.178-0.033-0.259-0.1c-0.063-0.079-0.11-0.191-0.138-0.336l-4.73-16.444c-0.012-0.039-0.02-0.086-0.02-0.14
			c0-0.105,0.039-0.197,0.119-0.277c0.079-0.079,0.172-0.119,0.276-0.119c0.12,0,0.212,0.034,0.276,0.1
			c0.054,0.054,0.088,0.1,0.101,0.139l4.394,15.476l4.393-15.397c0.014-0.078,0.054-0.145,0.119-0.197
			c0.079-0.079,0.169-0.119,0.277-0.119c0.104,0,0.189,0.038,0.257,0.11c0.066,0.071,0.1,0.167,0.1,0.286
			c0,0.106-0.014,0.191-0.041,0.256L446.707,199.151z"/>
		<path fill="#FDD835" d="M461.331,191.612c-0.104,0-0.198-0.04-0.276-0.119s-0.117-0.172-0.117-0.277
			c0-0.104,0.039-0.197,0.117-0.275c0.078-0.08,0.172-0.119,0.276-0.119h3.564v-4.354c0-1.097-0.387-2.029-1.159-2.8
			c-0.771-0.772-1.705-1.159-2.799-1.159c-1.095,0-2.029,0.387-2.802,1.159c-0.771,0.771-1.156,1.703-1.156,2.8v8.707
			c0,1.081,0.382,2.013,1.146,2.789c0.768,0.78,1.703,1.168,2.813,1.168c1.094,0,2.024-0.388,2.789-1.168
			c0.105-0.092,0.21-0.138,0.318-0.138c0.105,0,0.197,0.039,0.275,0.118c0.079,0.08,0.119,0.172,0.119,0.278
			c0,0.118-0.055,0.231-0.158,0.335c-0.924,0.924-2.038,1.387-3.344,1.387c-1.307,0-2.426-0.465-3.355-1.396
			c-0.929-0.93-1.394-2.047-1.394-3.353v-8.728c0-1.308,0.465-2.426,1.394-3.355c0.93-0.93,2.049-1.396,3.355-1.396
			c1.306,0,2.425,0.466,3.353,1.396c0.931,0.93,1.396,2.048,1.396,3.355v4.748c0,0.092-0.037,0.178-0.118,0.259
			c-0.08,0.091-0.179,0.138-0.298,0.138H461.331z"/>
		<path fill="#FDD835" d="M472.414,175.386c0-0.105,0.041-0.199,0.117-0.277c0.081-0.078,0.173-0.119,0.278-0.119
			c0.106,0,0.2,0.041,0.276,0.119c0.079,0.078,0.12,0.172,0.12,0.277v23.746c0,0.105-0.041,0.198-0.12,0.277
			c-0.076,0.08-0.17,0.119-0.276,0.119c-0.105,0-0.197-0.039-0.278-0.119c-0.076-0.079-0.117-0.172-0.117-0.277V175.386z"/>
		<path fill="#FDD835" d="M482.704,182.093c0.104,0,0.198,0.041,0.278,0.119c0.078,0.08,0.118,0.172,0.118,0.277
			s-0.035,0.197-0.101,0.275c-0.051,0.041-0.086,0.068-0.098,0.082c-0.212,0.145-0.416,0.314-0.615,0.514
			c-0.775,0.765-1.167,1.695-1.167,2.791v9.32c0,1.094,0.392,2.023,1.167,2.79c0.199,0.198,0.417,0.376,0.654,0.535
			c0.012,0.012,0.025,0.02,0.041,0.02c0.078,0.092,0.118,0.19,0.118,0.296c0,0.107-0.04,0.197-0.118,0.278
			c-0.08,0.078-0.174,0.118-0.278,0.118c-0.093,0-0.173-0.02-0.237-0.06c-0.264-0.171-0.514-0.376-0.752-0.613
			c-0.924-0.937-1.385-2.059-1.385-3.364v-9.32c0-1.308,0.461-2.429,1.385-3.366c0.25-0.236,0.5-0.44,0.752-0.613
			C482.531,182.12,482.611,182.093,482.704,182.093z M487.353,182.905c-0.077-0.039-0.13-0.08-0.157-0.12
			c-0.092-0.079-0.137-0.17-0.137-0.276c0-0.105,0.039-0.197,0.119-0.277c0.078-0.079,0.17-0.119,0.277-0.119
			c0.105,0,0.191,0.027,0.256,0.08c0.25,0.172,0.494,0.37,0.733,0.593c0.922,0.938,1.385,2.059,1.385,3.366v9.32
			c0,1.306-0.463,2.428-1.385,3.364c-0.253,0.251-0.518,0.468-0.792,0.653c-0.055,0.025-0.121,0.039-0.197,0.039
			c-0.107,0-0.199-0.039-0.277-0.119c-0.08-0.079-0.119-0.172-0.119-0.277s0.039-0.204,0.119-0.296
			c0.024-0.027,0.045-0.039,0.06-0.039c0.21-0.146,0.419-0.323,0.632-0.535c0.779-0.767,1.168-1.696,1.168-2.79v-9.32
			c0-1.096-0.389-2.026-1.168-2.791C487.737,183.217,487.566,183.063,487.353,182.905z"/>
		<path fill="#FDD835" d="M502.077,198.756c0.938-0.079,1.741-0.462,2.413-1.147c0.781-0.765,1.168-1.695,1.168-2.791v-7.935
			c0-1.096-0.385-2.028-1.156-2.802c-0.77-0.771-1.705-1.156-2.801-1.156h-3.958v23.35c0,0.107-0.04,0.199-0.118,0.278
			c-0.08,0.081-0.172,0.119-0.277,0.119c-0.104,0-0.198-0.038-0.277-0.119c-0.078-0.079-0.117-0.171-0.117-0.278v-23.746
			c0-0.104,0.039-0.197,0.117-0.276c0.079-0.08,0.173-0.118,0.277-0.118h4.354c1.307,0,2.424,0.466,3.354,1.395
			c0.93,0.932,1.396,2.049,1.396,3.354v7.935c0,1.308-0.461,2.429-1.386,3.366c-0.831,0.829-1.802,1.285-2.909,1.364
			c-0.145,0-0.258-0.039-0.334-0.119c-0.08-0.079-0.121-0.17-0.121-0.277c0-0.104,0.041-0.198,0.121-0.276
			C501.898,198.797,501.984,198.756,502.077,198.756z"/>
		<path fill="#FDD835" d="M517.928,191.612c-0.105,0-0.198-0.04-0.277-0.119c-0.078-0.079-0.119-0.172-0.119-0.277
			c0-0.104,0.041-0.197,0.119-0.275c0.079-0.08,0.172-0.119,0.277-0.119h3.563v-4.354c0-1.097-0.385-2.029-1.158-2.8
			c-0.771-0.772-1.705-1.159-2.801-1.159c-1.094,0-2.026,0.387-2.799,1.159c-0.772,0.771-1.158,1.703-1.158,2.8v8.707
			c0,1.081,0.383,2.013,1.148,2.789c0.766,0.78,1.701,1.168,2.809,1.168c1.096,0,2.026-0.388,2.79-1.168
			c0.108-0.092,0.212-0.138,0.317-0.138s0.199,0.039,0.277,0.118c0.08,0.08,0.119,0.172,0.119,0.278
			c0,0.118-0.055,0.231-0.158,0.335c-0.924,0.924-2.037,1.387-3.346,1.387c-1.305,0-2.423-0.465-3.352-1.396
			c-0.932-0.93-1.395-2.047-1.395-3.353v-8.728c0-1.308,0.463-2.426,1.395-3.355c0.929-0.93,2.047-1.396,3.352-1.396
			c1.309,0,2.426,0.466,3.355,1.396c0.931,0.93,1.396,2.048,1.396,3.355v4.748c0,0.092-0.039,0.178-0.118,0.259
			c-0.08,0.091-0.18,0.138-0.299,0.138H517.928z"/>
		<path fill="#FDD835" d="M529.406,199.151c0,0.107-0.041,0.198-0.119,0.277c-0.078,0.08-0.172,0.119-0.275,0.119
			c-0.109,0-0.199-0.039-0.277-0.119c-0.082-0.079-0.12-0.17-0.12-0.277v-13.08c0-1.082,0.389-2.012,1.167-2.792
			c0.777-0.778,1.709-1.167,2.791-1.167c0.117,0,0.217,0.04,0.297,0.119c0.08,0.08,0.119,0.172,0.119,0.277
			c0,0.106-0.039,0.197-0.119,0.276c-0.08,0.081-0.18,0.12-0.297,0.12c-0.885,0-1.633,0.307-2.246,0.92
			c-0.614,0.613-0.92,1.362-0.92,2.246V199.151z"/>
	</g>
	<g>
		<circle fill="#FDD835" cx="68.044" cy="145.701" r="2.24"/>
		<circle fill="#FDD835" cx="77.058" cy="142.096" r="2.748"/>
		<path fill="#FDD835" d="M63.158,147.787c0-1.15-0.933-2.086-2.086-2.086c-1.153,0-2.085,0.936-2.085,2.086
			c0,1.155,0.932,2.087,2.085,2.087C62.225,149.874,63.158,148.942,63.158,147.787z"/>
		<path fill="#FDD835" d="M102.487,91.298c-18.476-21.527,3.206-36.033,3.206-36.033C85.335,66.919,97.141,86.26,97.243,86.26
			c3.869,8.753,20.563,17.1,20.46,16.997c1.516,0.203,6.124,2.364,10.376,4.49l0.587-1.424c-4.725-2.234-9.889-4.491-9.945-4.491
			C109.762,97.862,102.792,91.45,102.487,91.298z"/>
		<circle fill="#FDD835" cx="86.321" cy="137.005" r="2.748"/>
		<path fill="#FDD835" d="M109.239,127.824c-1.322,0.161-2.599,0.253-3.827,0.271c0.479,0.41,1.095,0.668,1.775,0.668
			C108.007,128.763,108.736,128.394,109.239,127.824z"/>
		<path fill="#FDD835" d="M28.047,135.745c0.077,0.576-0.15,17.314,27.682,18.812c-0.204,0,15.877-1.935,25.751-7.43
			c0.255,0.257,21.19-13.669,37.26-16.78l0.609-1.473c-0.268-0.07-0.545-0.137-0.807-0.207c-1.943,0.265-3.825,0.695-5.509,1.36
			c-0.101-0.101-18.524,6.921-23.615,10.587c0.205,0.203-16.388,12.313-33.69,12.111C55.831,152.622,33.757,155.876,28.047,135.745z
			"/>
		<circle fill="#FDD835" cx="35.163" cy="142.45" r="1.013"/>
		<circle fill="#FDD835" cx="53.386" cy="149.874" r="1.832"/>
		<path fill="#FDD835" d="M105.391,123.948c-0.356,0.31-0.628,0.707-0.788,1.16c0.29,0.033,0.587,0.037,0.888-0.023
			c0.448-0.09,0.841-0.29,1.178-0.555C106.233,124.336,105.807,124.144,105.391,123.948z"/>
		<circle fill="#FDD835" cx="46.261" cy="149.264" r="1.222"/>
		<circle fill="#FDD835" cx="40.308" cy="146.872" r="1.17"/>
		
			<ellipse transform="matrix(0.419 0.908 -0.908 0.419 94.3979 -10.0044)" fill="#FDD835" cx="55.016" cy="68.76" rx="2.672" ry="1.744"/>
		<circle fill="#FDD835" cx="80.564" cy="108.36" r="1.56"/>
		<path fill="#FDD835" d="M71.149,89.481c-1.771-0.79-3.618-0.507-4.124,0.63c-0.505,1.135,0.522,2.695,2.293,3.482
			c1.515,0.676,3.079,0.562,3.818-0.197c-0.095-0.881-0.176-1.759-0.242-2.629C72.473,90.264,71.88,89.806,71.149,89.481z"/>
		<circle fill="#FDD835" cx="78.832" cy="102.35" r="1.327"/>
		
			<ellipse transform="matrix(0.7555 -0.6552 0.6552 0.7555 -27.6431 49.2052)" fill="#FDD835" cx="52.101" cy="61.637" rx="0.725" ry="1.872"/>
		<path fill="#FDD835" d="M64.389,88.655c0.857-0.746,0.536-2.524-0.722-3.973c-1.257-1.448-2.976-2.018-3.834-1.271
			c-0.857,0.747-0.535,2.526,0.723,3.974C61.813,88.83,63.528,89.402,64.389,88.655z"/>
		
			<ellipse transform="matrix(0.4044 0.9146 -0.9146 0.4044 105.7266 -6.4598)" fill="#FDD835" cx="57.823" cy="77.949" rx="3.283" ry="2.023"/>
		<path fill="#FDD835" d="M83.31,86.854c0.015,0.154,0.033,0.305,0.051,0.454c-0.008-0.152-0.018-0.31-0.022-0.464
			C83.33,86.848,83.317,86.852,83.31,86.854z"/>
		<circle fill="#FDD835" cx="96.755" cy="130.543" r="2.799"/>
		<path fill="#FDD835" d="M97.347,122.774c1.091-0.219,1.798-1.277,1.583-2.369c-0.834-0.537-1.609-1.07-2.326-1.598
			c-0.018,0.004-0.034,0-0.051,0.006c-1.094,0.217-1.804,1.282-1.583,2.376C95.188,122.284,96.251,122.993,97.347,122.774z"/>
		<path fill="#FDD835" d="M138.081,51.094L92.086,4.666c-11.58-10.497-21.213,0-21.213,0L10.161,52.284
			c-12.445,9.2-9.958,22.728-9.958,22.728l9.741,76.731c2.271,16.882,15.151,15.676,15.151,15.676l65.242-0.851
			c14.485,0.541,18.848-13.096,18.848-13.096l5.749-13.915c-4.179,1.426-9.027,3.773-14.623,7.461c0,0-29.316,20.561-54.354,16.693
			c0,0-35.015-7.533-29.11-41.938c0,0,8.956-32.365,42.749-22.798c-0.204,0.205,10.179,1.426,12.011,18.524
			c-0.203,0.611,0.204,20.563-18.32,4.684c0.203,0,17.709,9.975,14.046-4.885c0.204,0.406-3.256-16.083-19.542-11.402
			c0,0.204-21.375,3.398-17.508,24.803c0,0.035,5.903,22.631,31.351,13.266c0,0,10.992-3.865,17.71-8.549
			c0,0,6.373-4.755,14.324-9.439c-12.635-5.15-17.377-17.851-17.377-17.851c-1.382-4.156-2.293-8.317-2.864-12.404
			c-1.033-0.044-2.115-0.124-3.256-0.252c0,0-9.583-0.171-15.991-14.691c-0.066-0.076-2.405-10.027-3.102-15.452
			c-0.384-3.015-2.537-7.422-7.852-9.275c0.067,0.04,10.638,0.572,14.089,8.39c0,0,3.857,11.095,4.835,13.299
			c0,0,4.304,7.613,10.583,10.219c-0.021-0.516-0.039-1.028-0.051-1.537c-7.242-2.986-10.743-12.203-10.694-12.02
			c-1.039-3.877-4.275-10.98-4.067-10.895c-6.83-11.591-25.065-7.756-24.79-7.591c-16.917,4.581-13.756,13.964-13.775,14.252
			c2.203,9.68,12.558,6.082,12.78,6.024c7.331-1.648,3.725-9.838,3.944-9.896c5.974,7.349-2.009,12.125-1.943,12.2
			c-17.966,8.187-21.532-7.724-21.542-7.579C9.381,52.004,30.47,45.554,30.393,45.62c20.505-8.521,30.037,7.89,30.047,7.748
			c5.383,4.492,6.575,18.284,6.583,18.143c1.422,4.693,3.619,6.965,5.778,7.992c0.956-16.854,6.316-29.5,6.316-29.5
			c4.031-10.582,4.933-16.013,4.933-16.013c3.157-23.979-12.19-21.085-12.19-21.085c-11.31,3.172-9.078,16.117-9.078,16.117
			c-3.869-14.789,5.388-17.367,5.319-17.715c9.325-4.947,15.803,1.176,15.766,1.001c13.718,11.549,2.627,38.388,2.801,38.353
			c-3.959,13.149-4.27,24.959-3.609,33.481c0.089,0.118,0.172,0.227,0.257,0.339c0.239-18.743,10.208-28.108,10.06-28.257
			c19.339-17.304,38.474-3.255,38.474-3.255c-24.123-4.386-30.637,9.776-30.535,9.776c0.916,3.767-1.936,5.19-1.63,5.293
			c-1.02,0.204-0.916,3.257-0.814,3.361c2.341,0.917,1.221,4.883,1.019,4.883c-0.917,0.408,1.017,3.258,1.017,3.258
			c4.581,2.035,3.359,6.514,3.359,6.514s1.221,1.425,1.018,1.731c5.089-1.526,5.904,5.395,5.904,5.395s1.629,1.22,1.629,1.425
			c6.209-2.647,7.021,3.758,7.021,3.758l10.596,3.679l11.434-27.675C148.254,60.848,138.081,51.094,138.081,51.094z"/>
		<circle fill="#FDD835" cx="90.303" cy="118.182" r="1.847"/>
		<circle fill="#FDD835" cx="84.824" cy="114.041" r="1.5"/>
	</g>
</g>
</svg>
