<?xml version="1.0" encoding="utf-8"?>
<!-- Generator: Adobe Illustrator 16.0.0, SVG Export Plug-In . SVG Version: 6.00 Build 0)  -->
<!DOCTYPE svg PUBLIC "-//W3C//DTD SVG 1.1//EN" "http://www.w3.org/Graphics/SVG/1.1/DTD/svg11.dtd">
<svg version="1.1" xmlns="http://www.w3.org/2000/svg" xmlns:xlink="http://www.w3.org/1999/xlink" x="0px" y="0px"
	 width="308.97px" height="100px" viewBox="0 0 308.97 100" enable-background="new 0 0 308.97 100" xml:space="preserve">
<g id="Layer_1" display="none">
	<g display="inline">
		<path fill="#FDD835" d="M95.417,65.407c-0.523-0.378-1.267-0.566-2.23-0.566h-11.5l-1.32,3.269
			c-0.419,1.047-0.921,1.77-1.508,2.168c-0.587,0.397-1.341,0.597-2.262,0.597c-0.796,0-1.32-0.231-1.571-0.691
			c-0.251-0.461-0.063-1.486,0.565-3.079l5.53-14.202c0.461-1.089,0.911-1.832,1.352-2.231c0.439-0.397,1.183-0.597,2.23-0.597
			c0.754,0,1.288,0.262,1.602,0.786c0.314,0.524,0.304,1.163-0.031,1.916l-1.508,4.086h10.996c1.089,0,2.074-0.188,2.953-0.565
			c0.881-0.377,1.487-1.068,1.823-2.074c0.084-0.251,0.125-0.438,0.125-0.565c1.132-4.817,0.575-8.524-1.665-11.123
			c-2.241-2.596-5.876-3.896-10.902-3.896h-2.765c-4.44,0-8.211,1.225-11.311,3.676c-3.102,2.451-5.447,5.708-7.038,9.771
			c-0.839,2.053-1.551,3.854-2.137,5.403c-0.587,1.55-1.09,2.87-1.508,3.959c-0.46,1.257-0.88,2.367-1.256,3.331
			c-1.257,3.1-1.823,5.687-1.697,7.76c0.126,2.073,0.691,3.74,1.697,4.995c1.005,1.258,2.325,2.147,3.958,2.672
			c1.634,0.522,3.351,0.785,5.153,0.785h6.347c2.219,0,4.178-0.138,5.875-0.409c1.697-0.273,3.227-0.857,4.588-1.758
			c1.36-0.901,2.617-2.21,3.77-3.93c1.152-1.717,2.335-3.999,3.55-6.847l0.251-0.629C95.993,66.454,95.941,65.783,95.417,65.407z"/>
		<path fill="#FDD835" d="M134.377,65.217c0.271-0.671,0.534-1.32,0.786-1.949c0.251-0.629,0.534-1.35,0.848-2.167
			c0.314-0.817,0.763-1.957,1.352-3.425c1.171-3.017,1.769-5.707,1.79-8.074c0.021-2.367-0.47-4.368-1.477-6.001
			c-1.004-1.634-2.492-2.869-4.461-3.708c-1.968-0.838-4.356-1.257-7.163-1.257h-2.828c-4.442,0-8.2,1.225-11.279,3.676
			c-3.079,2.451-5.435,5.708-7.069,9.771c-0.838,2.053-1.55,3.854-2.137,5.403s-1.09,2.87-1.508,3.959
			c-0.461,1.257-0.88,2.367-1.257,3.331c-1.257,3.1-1.822,5.687-1.695,7.76c0.125,2.073,0.69,3.74,1.695,4.995
			c1.006,1.258,2.335,2.147,3.99,2.672c1.654,0.522,3.382,0.785,5.185,0.785h6.284c2.221,0,4.179-0.138,5.875-0.409
			c1.698-0.273,3.226-0.857,4.587-1.758c1.361-0.901,2.618-2.21,3.771-3.93c1.152-1.717,2.335-3.999,3.55-6.847
			C133.718,66.831,134.104,65.887,134.377,65.217z M124.229,52.774l-5.906,15.335c-0.419,1.047-0.934,1.77-1.54,2.168
			c-0.608,0.397-1.373,0.597-2.294,0.597c-0.796,0-1.32-0.231-1.57-0.691c-0.251-0.461-0.063-1.486,0.565-3.079l5.529-14.202
			c0.461-1.089,0.921-1.832,1.383-2.231c0.459-0.397,1.214-0.597,2.262-0.597c0.711,0,1.234,0.262,1.571,0.786
			C124.563,51.382,124.563,52.021,124.229,52.774z"/>
		<path fill="#FDD835" d="M187.255,39.39l-10.997,26.958c-0.293,0.713-0.807,1.342-1.54,1.886c-0.733,0.545-1.455,0.815-2.168,0.815
			c-0.711,0-1.215-0.271-1.507-0.815c-0.295-0.544-0.274-1.173,0.063-1.886l10.368-26.958h-13.762l-10.997,26.958
			c-0.294,0.713-0.807,1.342-1.54,1.886c-0.733,0.545-1.457,0.815-2.168,0.815c-0.714,0-1.216-0.271-1.508-0.815
			c-0.293-0.544-0.273-1.173,0.063-1.886l9.992-26.958h-13.385l-16.213,40.907h18.161c2.177,0,4.147-0.251,5.906-0.753
			c1.76-0.502,3.331-1.131,4.713-1.885c0.964,0.796,2.168,1.435,3.613,1.917c1.444,0.481,3.215,0.721,5.31,0.721h0.691h14.327
			l16.213-40.907H187.255z"/>
		<path fill="#FDD835" d="M210.756,31.034c-0.964,0-1.864,0.272-2.701,0.816c-0.839,0.544-1.468,1.299-1.887,2.262l-18.851,46.186
			h13.51l20.107-49.264H210.756z"/>
		<path fill="#FDD835" d="M238.341,30.971h-10.18c-0.964,0-1.865,0.282-2.701,0.848c-0.839,0.566-1.467,1.331-1.886,2.293
			l-0.817,2.136h13.447L238.341,30.971z"/>
		<polygon fill="#FDD835" points="221.5,39.39 204.848,80.297 218.295,80.297 234.947,39.39 		"/>
		<path fill="#FDD835" d="M266.806,48.816c0.125-1.298,0-2.523-0.377-3.676c-0.378-1.152-1.091-2.146-2.138-2.984
			c-1.047-0.837-2.472-1.509-4.271-2.011c-1.802-0.503-4.064-0.755-6.787-0.755h-14.831L221.94,80.297h13.697l10.997-27.02
			c0.334-0.712,0.869-1.341,1.604-1.887c0.731-0.542,1.453-0.816,2.167-0.816c0.712,0,1.203,0.274,1.476,0.816
			c0.272,0.546,0.262,1.175-0.031,1.887l-10.053,27.02h13.384l11.06-28.15C266.617,51.1,266.806,49.989,266.806,48.816z"/>
		<path fill="#FDD835" d="M287.479,39.39c-4.441,0-8.211,1.226-11.311,3.677c-3.1,2.45-5.446,5.708-7.039,9.771
			c-0.837,2.011-1.539,3.771-2.104,5.277c-0.565,1.51-1.036,2.745-1.413,3.708c-0.461,1.174-0.837,2.158-1.133,2.954
			c-1.256,3.1-1.821,5.687-1.694,7.76c0.125,2.073,0.69,3.74,1.694,4.995c1.007,1.258,2.336,2.147,3.992,2.672
			c1.654,0.522,3.382,0.785,5.183,0.785h5.217l-8.044,13.195c2.765,0.588,5.467,0.502,8.106-0.251
			c1.131-0.294,2.314-0.754,3.551-1.383c1.234-0.629,2.45-1.477,3.646-2.545c1.192-1.068,2.355-2.398,3.485-3.99
			c1.133-1.592,2.179-3.498,3.142-5.719L308.97,39.39H287.479z M288.422,53.53l-5.593,14.579c-0.42,1.047-0.934,1.77-1.541,2.168
			c-0.606,0.397-1.372,0.597-2.293,0.597c-0.797,0-1.319-0.231-1.57-0.691c-0.251-0.461-0.063-1.486,0.564-3.079l5.28-13.511
			c0.46-1.048,0.91-1.769,1.35-2.169c0.441-0.397,1.184-0.596,2.23-0.596c0.754,0,1.289,0.261,1.604,0.786
			C288.767,52.136,288.757,52.774,288.422,53.53z"/>
		<g>
			<path fill="#FDD835" d="M89.123,12.348c1.608,0,2.999,0.218,4.172,0.653c1.173,0.437,2.078,1.051,2.715,1.844
				c0.636,0.793,0.988,1.754,1.055,2.881c0.067,1.129-0.179,2.386-0.737,3.771h-5.931c-0.425,0-0.783-0.089-1.073-0.268
				c-0.291-0.179-0.38-0.503-0.269-0.973c0.045-0.089,0.095-0.228,0.151-0.418c0.057-0.189,0.095-0.307,0.118-0.352
				c0.134-0.491,0.179-0.905,0.134-1.24c-0.045-0.335-0.291-0.503-0.737-0.503c-0.559,0-0.972,0.124-1.24,0.369
				c-0.267,0.247-0.458,0.503-0.569,0.771c-0.291,0.627-0.274,1.163,0.05,1.609c0.323,0.448,0.798,0.872,1.423,1.274
				c0.626,0.402,1.313,0.81,2.062,1.223c0.749,0.414,1.402,0.9,1.961,1.458c0.557,0.559,0.944,1.223,1.155,1.995
				c0.213,0.771,0.084,1.703-0.385,2.797c-0.447,1.073-0.956,1.973-1.525,2.699c-0.57,0.726-1.246,1.312-2.027,1.76
				c-0.782,0.447-1.693,0.765-2.732,0.955c-1.039,0.189-2.262,0.285-3.67,0.285c-1.609,0-2.999-0.213-4.172-0.637
				c-1.173-0.424-2.078-1.033-2.714-1.827c-0.638-0.793-0.994-1.754-1.073-2.882c-0.077-1.128,0.174-2.397,0.754-3.804h5.899
				c0.491,0,0.859,0.111,1.105,0.335c0.245,0.224,0.268,0.692,0.067,1.407c-0.045,0.179-0.078,0.313-0.1,0.402
				c-0.112,0.447-0.141,0.826-0.084,1.139c0.056,0.313,0.297,0.469,0.721,0.469c0.826,0,1.384-0.346,1.676-1.039
				c0.268-0.603,0.246-1.128-0.067-1.576c-0.313-0.446-0.776-0.871-1.391-1.274c-0.615-0.401-1.285-0.814-2.011-1.239
				c-0.726-0.424-1.362-0.922-1.91-1.491c-0.547-0.57-0.927-1.246-1.14-2.028c-0.212-0.781-0.083-1.73,0.385-2.848
				c0.425-1.072,0.922-1.972,1.491-2.698c0.57-0.726,1.252-1.312,2.045-1.759c0.792-0.447,1.709-0.765,2.747-0.956
				C86.492,12.443,87.715,12.348,89.123,12.348z"/>
			<path fill="#FDD835" d="M113.823,15.498l-2.313,5.698h-5.965l-5.43,13.372H92.91l10.054-24.633
				c0.177-0.447,0.507-0.838,0.989-1.173c0.479-0.335,0.977-0.502,1.491-0.502h5.395l-2.982,7.239H113.823z"/>
			<path fill="#FDD835" d="M128.987,12.868c0.973,0.347,1.754,0.86,2.346,1.542c0.591,0.681,0.973,1.513,1.14,2.497
				c0.167,0.983,0.105,2.111-0.184,3.385l-0.102,0.268c-0.291,0.96-0.676,1.821-1.156,2.581c-0.481,0.759-1.112,1.407-1.894,1.943
				c-0.783,0.536-1.738,0.961-2.866,1.273c-1.128,0.313-2.475,0.492-4.038,0.537l2.345-7.004c0.179-0.402,0.184-0.742,0.017-1.022
				c-0.167-0.279-0.452-0.419-0.855-0.419c-0.558,0-0.961,0.106-1.207,0.318c-0.245,0.213-0.479,0.609-0.703,1.191l-3.116,7.943
				c-0.247,0.692-0.285,1.139-0.118,1.339c0.167,0.202,0.441,0.302,0.82,0.302c1.073,0,2.24-0.011,3.502-0.034
				c1.263-0.021,2.519-0.19,3.77-0.502h0.067c0.022,0,0.034-0.005,0.034-0.017c0-0.011,0.011-0.016,0.033-0.016
				c0.201-0.045,0.431-0.079,0.687-0.101c0.257-0.021,0.486-0.011,0.687,0.034s0.347,0.129,0.436,0.251
				c0.089,0.123,0.079,0.318-0.034,0.586c0,0.045-0.017,0.096-0.05,0.151c-0.033,0.056-0.051,0.096-0.051,0.117
				c-0.559,1.073-1.122,1.934-1.691,2.582c-0.571,0.648-1.19,1.145-1.861,1.491c-0.67,0.347-1.414,0.575-2.228,0.687
				c-0.817,0.111-1.749,0.168-2.799,0.168h-3.385c-0.961,0-1.877-0.14-2.748-0.419c-0.871-0.279-1.575-0.754-2.112-1.425
				c-0.535-0.67-0.837-1.558-0.904-2.664c-0.067-1.106,0.225-2.485,0.871-4.14c0.201-0.513,0.425-1.106,0.67-1.776
				c0.223-0.581,0.498-1.285,0.821-2.111c0.325-0.826,0.709-1.787,1.157-2.882c0.849-2.167,2.1-3.905,3.753-5.212
				s3.664-1.96,6.032-1.96h1.475C126.87,12.348,128.015,12.521,128.987,12.868z"/>
			<path fill="#FDD835" d="M157.49,12.75l-17.126,21.817h-8.042l2.546-21.817h5.362c0.469,0,0.838,0.124,1.106,0.368
				c0.268,0.247,0.369,0.626,0.301,1.14l0.034-0.034l-1.14,9.92l8.211-10.523c0.178-0.223,0.414-0.424,0.703-0.603
				c0.29-0.179,0.581-0.268,0.872-0.268H157.49z"/>
			<path fill="#FDD835" d="M169.707,12.868c0.97,0.347,1.752,0.86,2.346,1.542c0.591,0.681,0.972,1.513,1.138,2.497
				c0.168,0.983,0.106,2.111-0.184,3.385l-0.101,0.268c-0.291,0.96-0.676,1.821-1.156,2.581c-0.481,0.759-1.111,1.407-1.893,1.943
				c-0.783,0.536-1.739,0.961-2.866,1.273c-1.129,0.313-2.476,0.492-4.038,0.537l2.345-7.004c0.181-0.402,0.185-0.742,0.018-1.022
				c-0.169-0.279-0.452-0.419-0.855-0.419c-0.56,0-0.961,0.106-1.206,0.318c-0.247,0.213-0.479,0.609-0.703,1.191l-3.117,7.943
				c-0.246,0.692-0.286,1.139-0.117,1.339c0.167,0.202,0.441,0.302,0.821,0.302c1.072,0,2.239-0.011,3.502-0.034
				c1.261-0.021,2.519-0.19,3.77-0.502h0.068c0.021,0,0.033-0.005,0.033-0.017c0-0.011,0.011-0.016,0.033-0.016
				c0.201-0.045,0.43-0.079,0.686-0.101c0.258-0.021,0.486-0.011,0.689,0.034c0.2,0.044,0.345,0.129,0.435,0.251
				c0.089,0.123,0.078,0.318-0.033,0.586c0,0.045-0.018,0.096-0.051,0.151c-0.033,0.056-0.05,0.096-0.05,0.117
				c-0.559,1.073-1.123,1.934-1.692,2.582c-0.57,0.648-1.189,1.145-1.859,1.491c-0.671,0.347-1.415,0.575-2.229,0.687
				c-0.815,0.111-1.749,0.168-2.799,0.168h-3.384c-0.962,0-1.876-0.14-2.749-0.419c-0.871-0.279-1.575-0.754-2.111-1.425
				c-0.537-0.67-0.838-1.558-0.905-2.664c-0.067-1.106,0.223-2.485,0.871-4.14c0.202-0.513,0.426-1.106,0.671-1.776
				c0.224-0.581,0.496-1.285,0.822-2.111c0.322-0.826,0.708-1.787,1.156-2.882c0.848-2.167,2.1-3.905,3.754-5.212
				c1.652-1.307,3.664-1.96,6.033-1.96h1.473C167.589,12.348,168.733,12.521,169.707,12.868z"/>
		</g>
		<g>
			<path fill="#FDD835" d="M11.161,96.151c0.095,0.006,0.162,0.028,0.201,0.066c0.038,0.039,0.057,0.081,0.057,0.125
				c0,0.051-0.019,0.095-0.057,0.135c-0.039,0.038-0.083,0.057-0.134,0.057h-0.029c-0.536-0.045-1.005-0.266-1.407-0.661
				c-0.447-0.452-0.671-0.996-0.671-1.627v-3.83c0-0.633,0.226-1.173,0.676-1.623c0.45-0.45,0.991-0.676,1.622-0.676h2.107
				c0.05,0,0.095,0.019,0.133,0.058c0.039,0.039,0.058,0.083,0.058,0.135v8.616h-0.01v0.395c0,0.63-0.225,1.172-0.674,1.621
				c-0.451,0.451-0.992,0.676-1.623,0.676c-0.632,0-1.172-0.224-1.618-0.671c-0.051-0.051-0.077-0.104-0.077-0.161
				c0-0.053,0.019-0.096,0.057-0.135c0.039-0.037,0.083-0.058,0.134-0.058s0.102,0.022,0.153,0.068
				c0.37,0.375,0.82,0.563,1.35,0.563c0.536,0,0.989-0.188,1.359-0.563c0.37-0.378,0.556-0.699,0.556-0.968h0.01V88.5h-1.916
				c-0.53,0-0.981,0.188-1.354,0.561c-0.374,0.373-0.561,0.825-0.561,1.355v3.83c0,0.53,0.188,0.979,0.565,1.35
				C10.375,95.909,10.739,96.093,11.161,96.151z"/>
			<path fill="#FDD835" d="M17.738,96.361c0,0.052-0.02,0.096-0.057,0.135c-0.038,0.038-0.083,0.057-0.134,0.057
				s-0.096-0.019-0.134-0.057c-0.038-0.039-0.057-0.083-0.057-0.135v-6.328c0-0.524,0.188-0.974,0.564-1.352
				c0.377-0.376,0.827-0.564,1.351-0.564c0.057,0,0.105,0.019,0.144,0.058c0.037,0.039,0.056,0.083,0.056,0.135
				c0,0.051-0.019,0.096-0.056,0.133c-0.039,0.039-0.087,0.058-0.144,0.058c-0.428,0-0.79,0.149-1.087,0.446
				s-0.446,0.659-0.446,1.087V96.361z"/>
			<path fill="#FDD835" d="M24.059,96.543c-0.632,0-1.173-0.226-1.624-0.675c-0.449-0.45-0.674-0.992-0.674-1.623v-0.776
				c0-0.632,0.223-1.174,0.67-1.628c0.402-0.395,0.868-0.615,1.397-0.661c0.077,0,0.134,0.021,0.173,0.059
				c0.038,0.038,0.058,0.084,0.058,0.133c0,0.053-0.017,0.097-0.048,0.136c-0.039,0.038-0.077,0.058-0.116,0.058
				c-0.459,0.031-0.855,0.216-1.187,0.555c-0.376,0.37-0.565,0.82-0.565,1.35v0.776c0,0.53,0.188,0.981,0.561,1.354
				s0.825,0.561,1.355,0.561h1.915v-5.927c-0.006-0.53-0.195-0.981-0.565-1.356c-0.371-0.373-0.824-0.56-1.36-0.56
				c-0.523,0-0.982,0.192-1.379,0.575c-0.032,0.038-0.073,0.057-0.124,0.057c-0.051,0-0.096-0.019-0.134-0.057
				c-0.038-0.038-0.057-0.084-0.057-0.135s0.019-0.095,0.057-0.135c0.459-0.466,1.005-0.698,1.637-0.698
				c0.632,0,1.174,0.226,1.624,0.675c0.45,0.45,0.677,0.995,0.685,1.634v6.118c0,0.051-0.02,0.096-0.058,0.134
				c-0.039,0.038-0.083,0.058-0.134,0.058H24.059z"/>
			<path fill="#FDD835" d="M32.092,96.17c0.453-0.038,0.842-0.224,1.168-0.556c0.377-0.371,0.564-0.821,0.564-1.351v-3.84
				c0-0.529-0.187-0.98-0.56-1.355c-0.374-0.373-0.825-0.559-1.354-0.559h-1.916v11.298c0,0.052-0.019,0.096-0.057,0.134
				c-0.039,0.04-0.083,0.058-0.135,0.058c-0.05,0-0.096-0.018-0.134-0.058c-0.038-0.038-0.058-0.082-0.058-0.134v-11.49
				c0-0.05,0.02-0.096,0.058-0.133c0.038-0.04,0.083-0.059,0.134-0.059h2.107c0.631,0,1.173,0.226,1.623,0.676
				c0.45,0.45,0.675,0.99,0.675,1.622v3.84c0,0.633-0.224,1.175-0.671,1.629c-0.402,0.4-0.871,0.622-1.407,0.659
				c-0.07,0-0.125-0.019-0.162-0.057c-0.039-0.039-0.058-0.083-0.058-0.135c0-0.051,0.019-0.096,0.058-0.134
				C32.005,96.189,32.047,96.17,32.092,96.17z"/>
			<path fill="#FDD835" d="M38.038,88.51v7.842c0,0.051-0.019,0.096-0.057,0.134c-0.039,0.038-0.083,0.058-0.135,0.058
				c-0.05,0-0.095-0.02-0.134-0.058c-0.038-0.038-0.058-0.083-0.058-0.134v-11.49c0-0.052,0.02-0.096,0.058-0.135
				c0.039-0.038,0.083-0.057,0.134-0.057c0.052,0,0.096,0.019,0.135,0.057c0.038,0.039,0.057,0.083,0.057,0.135v3.265h1.915
				c0.632,0,1.173,0.226,1.624,0.676s0.674,0.99,0.674,1.622v5.928c0,0.051-0.019,0.096-0.056,0.134
				c-0.04,0.038-0.083,0.058-0.135,0.058c-0.051,0-0.096-0.02-0.133-0.058c-0.039-0.038-0.057-0.083-0.057-0.134v-5.928
				c0-0.529-0.188-0.98-0.561-1.355c-0.374-0.373-0.825-0.559-1.355-0.559H38.038z"/>
			<path fill="#FDD835" d="M46.32,85.168c0.077,0.075,0.115,0.166,0.115,0.268s-0.039,0.192-0.115,0.268
				c-0.077,0.076-0.166,0.116-0.269,0.116c-0.102,0-0.191-0.04-0.268-0.116c-0.077-0.075-0.115-0.166-0.115-0.268
				s0.038-0.192,0.115-0.268c0.077-0.077,0.166-0.116,0.268-0.116C46.154,85.052,46.244,85.091,46.32,85.168z M46.244,96.352
				c0,0.051-0.019,0.096-0.057,0.134c-0.039,0.038-0.083,0.058-0.135,0.058c-0.05,0-0.095-0.02-0.134-0.058
				c-0.038-0.038-0.057-0.083-0.057-0.134v-8.043c0-0.052,0.019-0.096,0.057-0.135c0.039-0.039,0.083-0.058,0.134-0.058
				c0.051,0,0.096,0.019,0.135,0.058c0.038,0.039,0.057,0.083,0.057,0.135V96.352z"/>
			<path fill="#FDD835" d="M53.368,95.787c0.057-0.05,0.111-0.077,0.162-0.077c0.052,0,0.096,0.02,0.134,0.06
				c0.039,0.037,0.058,0.081,0.058,0.132c0,0.057-0.029,0.116-0.086,0.173c-0.446,0.446-0.986,0.671-1.618,0.671
				c-0.632,0-1.173-0.225-1.623-0.675c-0.45-0.451-0.675-0.991-0.675-1.623v-4.233c0-0.631,0.225-1.173,0.675-1.622
				c0.45-0.45,0.991-0.676,1.623-0.676c0.632,0,1.172,0.224,1.618,0.671c0.058,0.058,0.086,0.115,0.086,0.172
				c0,0.051-0.019,0.097-0.058,0.135c-0.038,0.038-0.082,0.057-0.134,0.057c-0.051,0-0.105-0.025-0.162-0.076
				c-0.371-0.377-0.821-0.564-1.351-0.564c-0.536,0-0.989,0.188-1.359,0.564c-0.371,0.377-0.556,0.827-0.556,1.351v4.213
				c0,0.523,0.186,0.974,0.556,1.35c0.37,0.378,0.823,0.565,1.359,0.565C52.547,96.352,52.997,96.165,53.368,95.787z"/>
			<path fill="#FDD835" d="M63.526,88.5c-0.453,0.039-0.842,0.225-1.167,0.557c-0.377,0.369-0.565,0.819-0.565,1.349v3.841
				c0,0.53,0.187,0.981,0.56,1.354c0.374,0.373,0.825,0.561,1.355,0.561h1.915V84.862c0-0.052,0.02-0.096,0.058-0.135
				c0.039-0.038,0.083-0.057,0.134-0.057s0.096,0.019,0.134,0.057c0.039,0.039,0.058,0.083,0.058,0.135v11.49
				c0,0.051-0.019,0.096-0.058,0.134c-0.038,0.038-0.083,0.058-0.134,0.058h-2.106c-0.632,0-1.172-0.226-1.623-0.675
				c-0.45-0.45-0.675-0.992-0.675-1.623v-3.841c0-0.632,0.223-1.173,0.67-1.627c0.402-0.402,0.871-0.623,1.408-0.661
				c0.07,0,0.125,0.019,0.163,0.058s0.057,0.083,0.057,0.135c0,0.051-0.019,0.096-0.057,0.133
				C63.613,88.481,63.572,88.5,63.526,88.5z"/>
			<path fill="#FDD835" d="M71.934,92.713c-0.052,0-0.096-0.02-0.134-0.058c-0.038-0.038-0.058-0.084-0.058-0.135
				c0-0.05,0.02-0.095,0.058-0.133c0.039-0.038,0.083-0.059,0.134-0.059h1.723v-2.105c0-0.53-0.186-0.981-0.56-1.354
				c-0.374-0.374-0.826-0.561-1.355-0.561s-0.981,0.187-1.354,0.561c-0.373,0.373-0.561,0.824-0.561,1.354v4.213
				c0,0.523,0.186,0.974,0.556,1.35c0.37,0.378,0.823,0.565,1.359,0.565c0.53,0,0.98-0.188,1.35-0.565
				c0.051-0.045,0.103-0.067,0.154-0.067c0.051,0,0.096,0.02,0.134,0.058c0.038,0.039,0.057,0.083,0.057,0.135
				c0,0.058-0.025,0.111-0.076,0.162c-0.447,0.446-0.987,0.671-1.619,0.671c-0.631,0-1.173-0.225-1.622-0.675
				c-0.451-0.451-0.676-0.991-0.676-1.623v-4.223c0-0.633,0.226-1.174,0.676-1.624c0.449-0.449,0.991-0.675,1.622-0.675
				c0.632,0,1.173,0.226,1.624,0.675c0.45,0.45,0.675,0.991,0.675,1.624v2.297c0,0.046-0.02,0.087-0.058,0.125
				c-0.039,0.045-0.087,0.067-0.145,0.067H71.934z"/>
			<path fill="#FDD835" d="M80.638,88.874c0,0.051-0.02,0.096-0.058,0.133c-0.038,0.033-0.076,0.05-0.115,0.05
				c-0.07,0-0.137-0.036-0.201-0.106c-0.357-0.369-0.813-0.577-1.369-0.622c-0.083-0.007-0.164-0.01-0.24-0.01
				c-0.466,0-0.824,0.118-1.073,0.354c-0.389,0.275-0.594,0.694-0.613,1.255c0,0.806,0.721,1.584,2.165,2.337
				c1.161,0.593,1.742,1.379,1.742,2.356c-0.019,0.688-0.234,1.215-0.646,1.579s-0.94,0.546-1.584,0.546
				c-0.696-0.02-1.261-0.262-1.695-0.728c-0.057-0.064-0.086-0.124-0.086-0.183c0-0.051,0.019-0.096,0.057-0.133
				c0.038-0.033,0.077-0.049,0.116-0.049c0.07,0,0.14,0.041,0.209,0.124c0.37,0.358,0.827,0.552,1.371,0.584h0.171
				c0.454,0,0.83-0.107,1.13-0.325c0.396-0.357,0.6-0.839,0.613-1.447v-0.037c0-0.849-0.706-1.637-2.116-2.365
				c-1.194-0.65-1.79-1.409-1.79-2.278c0.018-0.626,0.245-1.111,0.679-1.456c0.421-0.325,0.932-0.488,1.532-0.488h0.114
				c0.632,0.025,1.163,0.269,1.59,0.728C80.606,88.762,80.638,88.822,80.638,88.874z"/>
			<path fill="#FDD835" d="M84.43,85.168c0.077,0.075,0.114,0.166,0.114,0.268s-0.038,0.192-0.114,0.268
				c-0.077,0.076-0.166,0.116-0.268,0.116c-0.103,0-0.192-0.04-0.269-0.116c-0.077-0.075-0.114-0.166-0.114-0.268
				s0.038-0.192,0.114-0.268c0.077-0.077,0.167-0.116,0.269-0.116C84.264,85.052,84.353,85.091,84.43,85.168z M84.353,96.352
				c0,0.051-0.019,0.096-0.057,0.134c-0.039,0.038-0.083,0.058-0.134,0.058c-0.052,0-0.096-0.02-0.135-0.058
				c-0.039-0.038-0.058-0.083-0.058-0.134v-8.043c0-0.052,0.019-0.096,0.058-0.135c0.039-0.039,0.083-0.058,0.135-0.058
				c0.051,0,0.095,0.019,0.134,0.058c0.038,0.039,0.057,0.083,0.057,0.135V96.352z"/>
			<path fill="#FDD835" d="M89.869,96.151c0.095,0.006,0.163,0.028,0.201,0.066c0.038,0.039,0.057,0.081,0.057,0.125
				c0,0.051-0.02,0.095-0.057,0.135c-0.039,0.038-0.083,0.057-0.134,0.057h-0.029c-0.535-0.045-1.005-0.266-1.407-0.661
				c-0.446-0.452-0.67-0.996-0.67-1.627v-3.83c0-0.633,0.225-1.173,0.675-1.623s0.991-0.676,1.623-0.676h2.106
				c0.051,0,0.096,0.019,0.134,0.058s0.057,0.083,0.057,0.135v8.616h-0.009v0.395c0,0.63-0.225,1.172-0.675,1.621
				c-0.451,0.451-0.991,0.676-1.623,0.676s-1.171-0.224-1.618-0.671c-0.051-0.051-0.076-0.104-0.076-0.161
				c0-0.053,0.019-0.096,0.057-0.135c0.039-0.037,0.083-0.058,0.133-0.058c0.052,0,0.102,0.022,0.154,0.068
				c0.37,0.375,0.82,0.563,1.35,0.563c0.536,0,0.989-0.188,1.36-0.563c0.37-0.378,0.555-0.699,0.555-0.968h0.01V88.5h-1.915
				c-0.53,0-0.981,0.188-1.355,0.561s-0.56,0.825-0.56,1.355v3.83c0,0.53,0.188,0.979,0.565,1.35
				C89.083,95.909,89.448,96.093,89.869,96.151z"/>
			<path fill="#FDD835" d="M96.638,96.352c0,0.051-0.019,0.096-0.058,0.134c-0.038,0.038-0.083,0.058-0.134,0.058
				s-0.096-0.02-0.134-0.058s-0.058-0.083-0.058-0.134v-8.043c0-0.052,0.02-0.096,0.058-0.135s0.083-0.058,0.134-0.058h2.107
				c0.631,0,1.172,0.226,1.622,0.676s0.675,0.99,0.675,1.623v5.937c0,0.051-0.019,0.096-0.058,0.134
				c-0.038,0.038-0.083,0.058-0.134,0.058c-0.051,0-0.095-0.02-0.133-0.058s-0.058-0.083-0.058-0.134v-5.937
				c0-0.53-0.187-0.982-0.56-1.355S99.083,88.5,98.554,88.5h-1.916V96.352z"/>
			<path fill="#FDD835" d="M106.596,92.713c-0.051,0-0.096-0.02-0.134-0.058s-0.057-0.084-0.057-0.135
				c0-0.05,0.019-0.095,0.057-0.133s0.083-0.059,0.134-0.059h1.723v-2.105c0-0.53-0.186-0.981-0.56-1.354
				c-0.374-0.374-0.825-0.561-1.354-0.561c-0.53,0-0.982,0.187-1.356,0.561c-0.373,0.373-0.56,0.824-0.56,1.354v4.213
				c0,0.523,0.186,0.974,0.555,1.35c0.37,0.378,0.824,0.565,1.36,0.565c0.529,0,0.979-0.188,1.349-0.565
				c0.051-0.045,0.103-0.067,0.154-0.067c0.05,0,0.095,0.02,0.133,0.058c0.038,0.039,0.058,0.083,0.058,0.135
				c0,0.058-0.026,0.111-0.076,0.162c-0.448,0.446-0.987,0.671-1.618,0.671c-0.632,0-1.173-0.225-1.624-0.675
				c-0.45-0.451-0.675-0.991-0.675-1.623v-4.223c0-0.633,0.225-1.174,0.675-1.624c0.45-0.449,0.991-0.675,1.624-0.675
				c0.631,0,1.173,0.226,1.623,0.675c0.449,0.45,0.675,0.991,0.675,1.624v2.297c0,0.046-0.019,0.087-0.058,0.125
				c-0.039,0.045-0.087,0.067-0.144,0.067H106.596z"/>
			<path fill="#FDD835" d="M112.15,96.361c0,0.052-0.019,0.096-0.058,0.135c-0.038,0.038-0.083,0.057-0.134,0.057
				c-0.051,0-0.096-0.019-0.134-0.057c-0.039-0.039-0.058-0.083-0.058-0.135v-6.328c0-0.524,0.188-0.974,0.565-1.352
				c0.376-0.376,0.827-0.564,1.351-0.564c0.057,0,0.105,0.019,0.143,0.058s0.058,0.083,0.058,0.135c0,0.051-0.02,0.096-0.058,0.133
				c-0.038,0.039-0.086,0.058-0.143,0.058c-0.428,0-0.791,0.149-1.087,0.446c-0.297,0.297-0.445,0.659-0.445,1.087V96.361z"/>
			<path fill="#FDD835" d="M125.479,88.375c-0.025,0.038-0.051,0.07-0.077,0.096c-0.045,0.039-0.093,0.057-0.144,0.057
				c-0.051,0-0.096-0.018-0.134-0.057c-0.039-0.038-0.057-0.082-0.057-0.134c0-0.045,0.028-0.102,0.086-0.173
				c0.166-0.217,0.281-0.385,0.345-0.506c0.16-0.264,0.24-0.557,0.24-0.883c0-0.478-0.167-0.885-0.503-1.221
				c-0.335-0.335-0.743-0.503-1.221-0.503c-0.479,0-0.885,0.171-1.216,0.508c-0.333,0.339-0.498,0.744-0.498,1.216
				c0,0.23,0.042,0.464,0.124,0.7c0.167,0.428,0.997,1.895,2.49,4.403c0.02,0.033,0.028,0.065,0.028,0.097
				c0,0.051-0.018,0.096-0.057,0.134c-0.039,0.038-0.083,0.058-0.134,0.058c-0.044,0-0.092-0.022-0.144-0.066
				c-0.019-0.02-0.035-0.045-0.048-0.077l-0.833-1.475l-1.675,2.097c-0.339,0.396-0.514,0.861-0.526,1.397
				c0,0.595,0.205,1.095,0.613,1.504c0.409,0.408,0.906,0.613,1.493,0.613s1.085-0.208,1.494-0.623
				c0.172-0.172,0.306-0.357,0.402-0.555l0.278-0.546l1.178-2.834c0.013-0.027,0.032-0.056,0.058-0.087
				c0.038-0.031,0.083-0.048,0.134-0.048c0.051,0,0.096,0.019,0.134,0.057c0.039,0.04,0.058,0.084,0.058,0.135
				c0,0.032-0.013,0.069-0.039,0.115l-1.073,2.46l1.15,2.021c0.018,0.032,0.029,0.067,0.029,0.104c0,0.052-0.02,0.096-0.058,0.135
				c-0.039,0.038-0.084,0.057-0.134,0.057c-0.051,0-0.096-0.022-0.134-0.066c-0.032-0.026-0.055-0.058-0.067-0.096l-0.911-1.61
				c-0.331,0.532-0.577,0.876-0.737,1.036c-0.491,0.484-1.078,0.728-1.762,0.728c-0.683,0-1.269-0.244-1.757-0.733
				c-0.488-0.488-0.732-1.073-0.732-1.756c0-0.595,0.185-1.114,0.556-1.562l1.828-2.316c-0.766-1.245-1.238-2.069-1.417-2.471
				c-0.134-0.281-0.201-0.591-0.201-0.93c0-0.579,0.206-1.076,0.617-1.488c0.412-0.411,0.909-0.617,1.49-0.617
				c0.58,0,1.077,0.206,1.489,0.617c0.412,0.412,0.618,0.909,0.618,1.488c0,0.448-0.118,0.844-0.354,1.188
				C125.696,88.066,125.6,88.204,125.479,88.375z"/>
			<path fill="#FDD835" d="M135.705,88.117h1.522c0.051,0,0.096,0.019,0.133,0.058c0.039,0.039,0.058,0.083,0.058,0.135
				c0,0.051-0.019,0.096-0.058,0.133c-0.038,0.039-0.083,0.058-0.133,0.058h-1.522v7.843c0,0.057-0.021,0.105-0.062,0.144
				s-0.088,0.058-0.139,0.058c-0.044,0-0.086-0.02-0.125-0.058c-0.038-0.038-0.058-0.083-0.058-0.134V88.5h-0.391
				c-0.053,0-0.096-0.019-0.135-0.058c-0.039-0.037-0.058-0.082-0.058-0.133c0-0.052,0.019-0.096,0.058-0.135
				c0.039-0.039,0.082-0.058,0.135-0.058h0.391v-1.522c0-0.536,0.188-0.99,0.561-1.363c0.374-0.374,0.826-0.561,1.355-0.561
				c0.05,0,0.096,0.019,0.134,0.057c0.038,0.039,0.057,0.083,0.057,0.135c0,0.051-0.02,0.095-0.057,0.134
				c-0.039,0.038-0.084,0.057-0.134,0.057c-0.434,0-0.798,0.151-1.091,0.451c-0.294,0.299-0.44,0.664-0.44,1.091V88.117z"/>
			<path fill="#FDD835" d="M140.109,96.361c0,0.052-0.019,0.096-0.057,0.135c-0.039,0.038-0.084,0.057-0.134,0.057
				c-0.051,0-0.096-0.019-0.134-0.057c-0.039-0.039-0.058-0.083-0.058-0.135v-6.328c0-0.524,0.189-0.974,0.564-1.352
				c0.377-0.376,0.828-0.564,1.351-0.564c0.058,0,0.105,0.019,0.144,0.058s0.057,0.083,0.057,0.135c0,0.051-0.019,0.096-0.057,0.133
				c-0.039,0.039-0.085,0.058-0.144,0.058c-0.428,0-0.791,0.149-1.088,0.446c-0.296,0.297-0.444,0.659-0.444,1.087V96.361z"/>
			<path fill="#FDD835" d="M145.279,88.107c0.051,0,0.096,0.02,0.134,0.058c0.038,0.039,0.058,0.083,0.058,0.135
				c0,0.05-0.017,0.096-0.048,0.134c-0.025,0.019-0.042,0.032-0.048,0.038c-0.103,0.071-0.201,0.152-0.297,0.249
				c-0.377,0.369-0.565,0.82-0.565,1.351v4.51c0,0.529,0.188,0.979,0.565,1.35c0.096,0.096,0.201,0.182,0.316,0.259
				c0.006,0.006,0.013,0.01,0.019,0.01c0.038,0.045,0.058,0.093,0.058,0.144s-0.02,0.095-0.058,0.135
				c-0.038,0.038-0.083,0.057-0.134,0.057c-0.044,0-0.083-0.01-0.115-0.028c-0.127-0.083-0.249-0.182-0.364-0.298
				c-0.447-0.452-0.67-0.996-0.67-1.627v-4.51c0-0.633,0.223-1.175,0.67-1.629c0.122-0.114,0.243-0.214,0.364-0.297
				C145.196,88.121,145.235,88.107,145.279,88.107z M147.53,88.5c-0.038-0.019-0.065-0.038-0.077-0.058
				c-0.045-0.037-0.067-0.082-0.067-0.133c0-0.052,0.019-0.096,0.058-0.135c0.038-0.039,0.083-0.058,0.134-0.058
				c0.052,0,0.092,0.013,0.125,0.038c0.121,0.083,0.239,0.18,0.354,0.287c0.447,0.454,0.67,0.996,0.67,1.629v4.51
				c0,0.631-0.223,1.175-0.67,1.627c-0.121,0.121-0.248,0.228-0.382,0.316c-0.025,0.014-0.058,0.02-0.097,0.02
				c-0.051,0-0.096-0.02-0.134-0.058c-0.039-0.038-0.058-0.083-0.058-0.134c0-0.052,0.019-0.099,0.058-0.145
				c0.013-0.013,0.022-0.019,0.029-0.019c0.102-0.07,0.205-0.155,0.307-0.259c0.377-0.371,0.565-0.82,0.565-1.35v-4.51
				c0-0.53-0.188-0.981-0.565-1.351C147.715,88.651,147.632,88.577,147.53,88.5z"/>
			<path fill="#FDD835" d="M152.556,96.352c0,0.051-0.018,0.096-0.056,0.134c-0.039,0.038-0.083,0.058-0.135,0.058
				c-0.05,0-0.096-0.02-0.134-0.058c-0.038-0.038-0.058-0.083-0.058-0.134v-8.043c0-0.052,0.021-0.096,0.058-0.135
				c0.038-0.039,0.083-0.058,0.134-0.058h2.107c0.632,0,1.173,0.226,1.624,0.676s0.674,0.99,0.674,1.623v5.937
				c0,0.051-0.019,0.096-0.057,0.134c-0.038,0.038-0.083,0.058-0.134,0.058c-0.051,0-0.097-0.02-0.134-0.058
				c-0.039-0.038-0.059-0.083-0.059-0.134v-5.937c0-0.53-0.187-0.982-0.56-1.355s-0.825-0.561-1.354-0.561h-1.916V96.352z"/>
			<path fill="#FDD835" d="M162.323,88.117c0.051,0,0.095,0.019,0.135,0.058c0.038,0.039,0.057,0.083,0.057,0.135
				c0,0.051-0.019,0.096-0.057,0.133c-0.04,0.039-0.084,0.058-0.135,0.058h-1.532v6.129c0,0.428,0.149,0.79,0.446,1.086
				c0.296,0.297,0.658,0.446,1.086,0.446c0.057,0,0.105,0.019,0.144,0.057c0.038,0.039,0.058,0.083,0.058,0.135
				c0,0.051-0.02,0.096-0.058,0.134s-0.087,0.058-0.144,0.058c-0.524,0-0.974-0.188-1.351-0.565
				c-0.376-0.376-0.563-0.827-0.563-1.35V88.5h-0.394c-0.052,0-0.096-0.019-0.134-0.058c-0.039-0.037-0.056-0.082-0.056-0.133
				c0-0.052,0.017-0.096,0.056-0.135c0.038-0.039,0.082-0.058,0.134-0.058h0.394V86.02c0-0.051,0.019-0.097,0.057-0.134
				c0.038-0.038,0.083-0.059,0.134-0.059c0.052,0,0.096,0.021,0.135,0.059c0.038,0.037,0.057,0.083,0.057,0.134v2.097H162.323z"/>
			<path fill="#FDD835" d="M164.803,90.797c-0.052,0-0.096-0.019-0.133-0.057c-0.039-0.037-0.059-0.083-0.059-0.134
				c0-0.052,0.02-0.096,0.059-0.135c0.037-0.038,0.081-0.057,0.133-0.057h2.308c0.051,0,0.097,0.019,0.135,0.057
				c0.038,0.039,0.058,0.083,0.058,0.135c0,0.051-0.02,0.097-0.058,0.134c-0.038,0.038-0.084,0.057-0.135,0.057H164.803z"/>
			<path fill="#FDD835" d="M172.473,92.713c-0.051,0-0.096-0.02-0.134-0.058s-0.057-0.084-0.057-0.135
				c0-0.05,0.019-0.095,0.057-0.133s0.083-0.059,0.134-0.059h1.724v-2.105c0-0.53-0.187-0.981-0.561-1.354
				c-0.373-0.374-0.823-0.561-1.354-0.561s-0.983,0.187-1.356,0.561c-0.374,0.373-0.561,0.824-0.561,1.354v4.213
				c0,0.523,0.186,0.974,0.555,1.35c0.371,0.378,0.824,0.565,1.362,0.565c0.53,0,0.979-0.188,1.349-0.565
				c0.052-0.045,0.102-0.067,0.154-0.067c0.05,0,0.095,0.02,0.133,0.058c0.038,0.039,0.059,0.083,0.059,0.135
				c0,0.058-0.026,0.111-0.077,0.162c-0.447,0.446-0.987,0.671-1.617,0.671c-0.633,0-1.175-0.225-1.624-0.675
				c-0.45-0.451-0.675-0.991-0.675-1.623v-4.223c0-0.633,0.225-1.174,0.675-1.624c0.449-0.449,0.991-0.675,1.624-0.675
				c0.63,0,1.172,0.226,1.622,0.675c0.45,0.45,0.675,0.991,0.675,1.624v2.297c0,0.046-0.019,0.087-0.057,0.125
				c-0.039,0.045-0.088,0.067-0.145,0.067H172.473z"/>
			<path fill="#FDD835" d="M178.219,96.352c0,0.051-0.021,0.096-0.059,0.134c-0.038,0.038-0.084,0.058-0.135,0.058
				s-0.095-0.02-0.135-0.058c-0.038-0.038-0.055-0.083-0.055-0.134v-8.043c0-0.052,0.017-0.096,0.055-0.135
				c0.04-0.039,0.084-0.058,0.135-0.058h2.107c0.633,0,1.172,0.226,1.623,0.676c0.45,0.45,0.674,0.99,0.674,1.623v5.937
				c0,0.051-0.018,0.096-0.057,0.134c-0.038,0.038-0.083,0.058-0.133,0.058c-0.053,0-0.097-0.02-0.135-0.058
				c-0.039-0.038-0.059-0.083-0.059-0.134v-5.937c0-0.53-0.186-0.982-0.561-1.355c-0.373-0.373-0.825-0.561-1.354-0.561h-1.914
				V96.352z"/>
			<path fill="#FDD835" d="M187.812,88.5c-0.452,0.039-0.843,0.225-1.169,0.557c-0.376,0.369-0.565,0.819-0.565,1.349v3.841
				c0,0.53,0.188,0.981,0.561,1.354c0.375,0.373,0.825,0.561,1.355,0.561h1.915V84.862c0-0.052,0.02-0.096,0.059-0.135
				c0.037-0.038,0.081-0.057,0.134-0.057c0.051,0,0.096,0.019,0.133,0.057c0.039,0.039,0.059,0.083,0.059,0.135v11.49
				c0,0.051-0.02,0.096-0.059,0.134c-0.037,0.038-0.082,0.058-0.133,0.058h-2.107c-0.632,0-1.173-0.226-1.623-0.675
				c-0.45-0.45-0.674-0.992-0.674-1.623v-3.841c0-0.632,0.222-1.173,0.669-1.627c0.402-0.402,0.871-0.623,1.408-0.661
				c0.07,0,0.124,0.019,0.163,0.058c0.038,0.039,0.057,0.083,0.057,0.135c0,0.051-0.019,0.096-0.057,0.133
				C187.897,88.481,187.855,88.5,187.812,88.5z"/>
			<path fill="#FDD835" d="M200.834,88.5c-0.453,0.039-0.843,0.225-1.168,0.557c-0.378,0.369-0.566,0.819-0.566,1.349v3.841
				c0,0.53,0.188,0.981,0.561,1.354s0.825,0.561,1.355,0.561h1.914V84.862c0-0.052,0.02-0.096,0.059-0.135
				c0.038-0.038,0.082-0.057,0.134-0.057c0.051,0,0.096,0.019,0.134,0.057c0.038,0.039,0.058,0.083,0.058,0.135v11.49
				c0,0.051-0.02,0.096-0.058,0.134s-0.083,0.058-0.134,0.058h-2.106c-0.633,0-1.174-0.226-1.624-0.675
				c-0.449-0.45-0.675-0.992-0.675-1.623v-3.841c0-0.632,0.224-1.173,0.67-1.627c0.402-0.402,0.871-0.623,1.409-0.661
				c0.07,0,0.123,0.019,0.162,0.058s0.058,0.083,0.058,0.135c0,0.051-0.019,0.096-0.058,0.133
				C200.919,88.481,200.877,88.5,200.834,88.5z"/>
			<path fill="#FDD835" d="M209.24,92.713c-0.052,0-0.096-0.02-0.135-0.058c-0.038-0.038-0.057-0.084-0.057-0.135
				c0-0.05,0.019-0.095,0.057-0.133c0.039-0.038,0.083-0.059,0.135-0.059h1.724v-2.105c0-0.53-0.187-0.981-0.56-1.354
				c-0.375-0.374-0.825-0.561-1.355-0.561c-0.529,0-0.981,0.187-1.356,0.561c-0.373,0.373-0.559,0.824-0.559,1.354v4.213
				c0,0.523,0.185,0.974,0.555,1.35c0.372,0.378,0.824,0.565,1.36,0.565c0.53,0,0.979-0.188,1.35-0.565
				c0.051-0.045,0.103-0.067,0.153-0.067c0.052,0,0.097,0.02,0.134,0.058c0.038,0.039,0.059,0.083,0.059,0.135
				c0,0.058-0.027,0.111-0.076,0.162c-0.447,0.446-0.987,0.671-1.619,0.671s-1.173-0.225-1.623-0.675
				c-0.449-0.451-0.675-0.991-0.675-1.623v-4.223c0-0.633,0.226-1.174,0.675-1.624c0.45-0.449,0.991-0.675,1.623-0.675
				s1.173,0.226,1.622,0.675c0.451,0.45,0.676,0.991,0.676,1.624v2.297c0,0.046-0.019,0.087-0.058,0.125
				c-0.038,0.045-0.086,0.067-0.144,0.067H209.24z"/>
			<path fill="#FDD835" d="M216.144,96.361c-0.02,0.059-0.041,0.103-0.065,0.135c-0.04,0.031-0.085,0.048-0.135,0.048
				c-0.046,0-0.086-0.017-0.125-0.048c-0.031-0.039-0.055-0.093-0.067-0.163l-2.288-7.957c-0.006-0.019-0.01-0.041-0.01-0.066
				c0-0.052,0.019-0.096,0.058-0.135c0.038-0.039,0.082-0.058,0.134-0.058c0.058,0,0.102,0.017,0.135,0.048
				c0.024,0.025,0.041,0.049,0.047,0.067l2.127,7.487l2.124-7.449c0.008-0.038,0.026-0.07,0.059-0.096
				c0.038-0.039,0.082-0.058,0.134-0.058c0.05,0,0.092,0.019,0.124,0.053c0.032,0.035,0.049,0.081,0.049,0.14
				c0,0.051-0.007,0.092-0.021,0.124L216.144,96.361z"/>
			<path fill="#FDD835" d="M223.22,92.713c-0.051,0-0.096-0.02-0.134-0.058s-0.057-0.084-0.057-0.135
				c0-0.05,0.019-0.095,0.057-0.133s0.083-0.059,0.134-0.059h1.724v-2.105c0-0.53-0.187-0.981-0.561-1.354
				c-0.373-0.374-0.825-0.561-1.354-0.561c-0.53,0-0.983,0.187-1.356,0.561c-0.373,0.373-0.56,0.824-0.56,1.354v4.213
				c0,0.523,0.186,0.974,0.555,1.35c0.371,0.378,0.824,0.565,1.361,0.565c0.528,0,0.979-0.188,1.35-0.565
				c0.051-0.045,0.101-0.067,0.153-0.067c0.052,0,0.095,0.02,0.133,0.058c0.039,0.039,0.059,0.083,0.059,0.135
				c0,0.058-0.026,0.111-0.077,0.162c-0.447,0.446-0.986,0.671-1.617,0.671c-0.633,0-1.174-0.225-1.624-0.675
				c-0.45-0.451-0.674-0.991-0.674-1.623v-4.223c0-0.633,0.224-1.174,0.674-1.624c0.45-0.449,0.991-0.675,1.624-0.675
				c0.631,0,1.173,0.226,1.622,0.675c0.449,0.45,0.675,0.991,0.675,1.624v2.297c0,0.046-0.018,0.087-0.057,0.125
				c-0.039,0.045-0.088,0.067-0.145,0.067H223.22z"/>
			<path fill="#FDD835" d="M228.582,84.862c0-0.052,0.02-0.096,0.057-0.135c0.039-0.038,0.084-0.057,0.135-0.057
				s0.097,0.019,0.134,0.057c0.038,0.039,0.059,0.083,0.059,0.135v11.49c0,0.051-0.021,0.096-0.059,0.134
				c-0.037,0.038-0.083,0.058-0.134,0.058s-0.096-0.02-0.135-0.058c-0.037-0.038-0.057-0.083-0.057-0.134V84.862z"/>
			<path fill="#FDD835" d="M233.562,88.107c0.05,0,0.095,0.02,0.135,0.058c0.037,0.039,0.057,0.083,0.057,0.135
				c0,0.05-0.018,0.096-0.049,0.134c-0.025,0.019-0.041,0.032-0.048,0.038c-0.103,0.071-0.201,0.152-0.298,0.249
				c-0.374,0.369-0.563,0.82-0.563,1.351v4.51c0,0.529,0.189,0.979,0.563,1.35c0.097,0.096,0.203,0.182,0.316,0.259
				c0.007,0.006,0.014,0.01,0.021,0.01c0.037,0.045,0.057,0.093,0.057,0.144s-0.02,0.095-0.057,0.135
				c-0.04,0.038-0.085,0.057-0.135,0.057c-0.046,0-0.084-0.01-0.115-0.028c-0.127-0.083-0.248-0.182-0.364-0.298
				c-0.446-0.452-0.67-0.996-0.67-1.627v-4.51c0-0.633,0.224-1.175,0.67-1.629c0.121-0.114,0.242-0.214,0.364-0.297
				C233.478,88.121,233.516,88.107,233.562,88.107z M235.811,88.5c-0.037-0.019-0.063-0.038-0.076-0.058
				c-0.045-0.037-0.067-0.082-0.067-0.133c0-0.052,0.019-0.096,0.059-0.135c0.038-0.039,0.082-0.058,0.135-0.058
				c0.05,0,0.092,0.013,0.123,0.038c0.121,0.083,0.238,0.18,0.354,0.287c0.446,0.454,0.67,0.996,0.67,1.629v4.51
				c0,0.631-0.224,1.175-0.67,1.627c-0.121,0.121-0.25,0.228-0.383,0.316c-0.026,0.014-0.059,0.02-0.095,0.02
				c-0.053,0-0.097-0.02-0.135-0.058c-0.04-0.038-0.059-0.083-0.059-0.134c0-0.052,0.019-0.099,0.059-0.145
				c0.012-0.013,0.021-0.019,0.028-0.019c0.103-0.07,0.203-0.155,0.307-0.259c0.377-0.371,0.564-0.82,0.564-1.35v-4.51
				c0-0.53-0.188-0.981-0.564-1.351C235.996,88.651,235.913,88.577,235.811,88.5z"/>
			<path fill="#FDD835" d="M242.935,96.17c0.454-0.038,0.843-0.224,1.168-0.556c0.378-0.371,0.565-0.821,0.565-1.351v-3.84
				c0-0.529-0.186-0.98-0.56-1.355c-0.372-0.373-0.825-0.559-1.355-0.559h-1.915v11.298c0,0.052-0.021,0.096-0.057,0.134
				c-0.039,0.04-0.085,0.058-0.135,0.058c-0.051,0-0.096-0.018-0.135-0.058c-0.037-0.038-0.056-0.082-0.056-0.134v-11.49
				c0-0.05,0.019-0.096,0.056-0.133c0.039-0.04,0.084-0.059,0.135-0.059h2.106c0.633,0,1.173,0.226,1.623,0.676
				s0.675,0.99,0.675,1.622v3.84c0,0.633-0.223,1.175-0.67,1.629c-0.402,0.4-0.872,0.622-1.408,0.659
				c-0.07,0-0.125-0.019-0.161-0.057c-0.04-0.039-0.059-0.083-0.059-0.135c0-0.051,0.019-0.096,0.059-0.134
				C242.848,96.189,242.89,96.17,242.935,96.17z"/>
			<path fill="#FDD835" d="M250.604,92.713c-0.051,0-0.095-0.02-0.134-0.058c-0.038-0.038-0.057-0.084-0.057-0.135
				c0-0.05,0.019-0.095,0.057-0.133c0.039-0.038,0.083-0.059,0.134-0.059h1.725v-2.105c0-0.53-0.187-0.981-0.561-1.354
				c-0.373-0.374-0.824-0.561-1.354-0.561s-0.981,0.187-1.355,0.561c-0.374,0.373-0.56,0.824-0.56,1.354v4.213
				c0,0.523,0.185,0.974,0.555,1.35c0.371,0.378,0.824,0.565,1.36,0.565c0.53,0,0.979-0.188,1.35-0.565
				c0.053-0.045,0.103-0.067,0.153-0.067c0.052,0,0.097,0.02,0.134,0.058c0.039,0.039,0.058,0.083,0.058,0.135
				c0,0.058-0.026,0.111-0.075,0.162c-0.447,0.446-0.987,0.671-1.619,0.671s-1.173-0.225-1.623-0.675
				c-0.45-0.451-0.674-0.991-0.674-1.623v-4.223c0-0.633,0.224-1.174,0.674-1.624c0.45-0.449,0.991-0.675,1.623-0.675
				s1.174,0.226,1.622,0.675c0.451,0.45,0.677,0.991,0.677,1.624v2.297c0,0.046-0.02,0.087-0.058,0.125
				c-0.039,0.045-0.088,0.067-0.146,0.067H250.604z"/>
			<path fill="#FDD835" d="M256.158,96.361c0,0.052-0.02,0.096-0.057,0.135c-0.039,0.038-0.084,0.057-0.135,0.057
				c-0.052,0-0.097-0.019-0.135-0.057c-0.038-0.039-0.057-0.083-0.057-0.135v-6.328c0-0.524,0.188-0.974,0.564-1.352
				c0.376-0.376,0.826-0.564,1.35-0.564c0.058,0,0.105,0.019,0.145,0.058c0.038,0.039,0.057,0.083,0.057,0.135
				c0,0.051-0.019,0.096-0.057,0.133c-0.039,0.039-0.087,0.058-0.145,0.058c-0.428,0-0.789,0.149-1.086,0.446
				c-0.298,0.297-0.445,0.659-0.445,1.087V96.361z"/>
		</g>
		<g>
			<circle fill="#FDD835" cx="32.924" cy="70.499" r="1.084"/>
			<circle fill="#FDD835" cx="37.285" cy="68.754" r="1.33"/>
			<circle fill="#FDD835" cx="29.55" cy="71.507" r="1.009"/>
			<path fill="#FDD835" d="M49.589,44.175c-8.94-10.416,1.551-17.435,1.551-17.435c-9.851,5.639-4.138,14.997-4.089,14.997
				c1.872,4.235,9.95,8.274,9.9,8.225c0.733,0.098,2.963,1.144,5.021,2.172l0.284-0.688c-2.286-1.083-4.785-2.174-4.813-2.174
				C53.109,47.351,49.736,44.249,49.589,44.175z"/>
			<circle fill="#FDD835" cx="41.767" cy="66.291" r="1.33"/>
			<path fill="#FDD835" d="M52.856,61.848c-0.64,0.078-1.258,0.123-1.852,0.132c0.231,0.197,0.53,0.322,0.859,0.322
				C52.26,62.302,52.613,62.125,52.856,61.848z"/>
			<path fill="#FDD835" d="M13.571,65.681c0.037,0.279-0.073,8.378,13.394,9.103c-0.099,0,7.682-0.936,12.46-3.596
				c0.124,0.124,10.253-6.613,18.029-8.118l0.295-0.713c-0.13-0.033-0.264-0.066-0.391-0.101c-0.94,0.128-1.851,0.336-2.666,0.658
				c-0.049-0.049-8.963,3.35-11.426,5.122c0.099,0.099-7.93,5.958-16.301,5.86C27.014,73.848,16.333,75.421,13.571,65.681z"/>
			<circle fill="#FDD835" cx="17.014" cy="68.925" r="0.49"/>
			<circle fill="#FDD835" cx="25.832" cy="72.518" r="0.886"/>
			<path fill="#FDD835" d="M50.994,59.973c-0.172,0.149-0.304,0.342-0.381,0.561c0.14,0.018,0.284,0.02,0.43-0.01
				c0.217-0.045,0.407-0.142,0.57-0.27C51.402,60.161,51.195,60.068,50.994,59.973z"/>
			<circle fill="#FDD835" cx="22.384" cy="72.222" r="0.591"/>
			<circle fill="#FDD835" cx="19.503" cy="71.065" r="0.566"/>
			
				<ellipse transform="matrix(0.4189 0.908 -0.908 0.4189 45.6796 -4.8385)" fill="#FDD835" cx="26.62" cy="33.27" rx="1.293" ry="0.844"/>
			<circle fill="#FDD835" cx="38.982" cy="52.431" r="0.754"/>
			<path fill="#FDD835" d="M34.426,43.296c-0.857-0.382-1.751-0.246-1.996,0.305c-0.244,0.549,0.253,1.304,1.11,1.685
				c0.733,0.327,1.49,0.271,1.847-0.096c-0.046-0.426-0.085-0.851-0.117-1.272C35.066,43.674,34.78,43.453,34.426,43.296z"/>
			<circle fill="#FDD835" cx="38.143" cy="49.523" r="0.642"/>
			
				<ellipse transform="matrix(0.7558 -0.6549 0.6549 0.7558 -13.3727 23.7926)" fill="#FDD835" cx="25.209" cy="29.823" rx="0.351" ry="0.906"/>
			
				<ellipse transform="matrix(0.6558 0.7549 -0.7549 0.6558 41.768 -8.3604)" fill="#FDD835" cx="30.053" cy="41.628" rx="1.681" ry="0.997"/>
			
				<ellipse transform="matrix(0.4044 0.9146 -0.9146 0.4044 51.1575 -3.1252)" fill="#FDD835" cx="27.978" cy="37.716" rx="1.588" ry="0.979"/>
			<path fill="#FDD835" d="M40.31,42.025c0.007,0.074,0.016,0.147,0.024,0.219c-0.003-0.074-0.008-0.15-0.011-0.224
				C40.32,42.022,40.314,42.024,40.31,42.025z"/>
			<circle fill="#FDD835" cx="46.815" cy="63.165" r="1.354"/>
			<path fill="#FDD835" d="M47.102,59.406c0.528-0.106,0.87-0.619,0.766-1.147c-0.404-0.259-0.779-0.518-1.125-0.772
				c-0.008,0.001-0.017,0-0.025,0.003c-0.529,0.104-0.873,0.62-0.766,1.149C46.058,59.168,46.572,59.511,47.102,59.406z"/>
			<path fill="#FDD835" d="M66.812,24.722L44.557,2.257c-5.603-5.079-10.264,0-10.264,0L4.917,25.298
				c-6.022,4.452-4.818,10.997-4.818,10.997l4.713,37.127c1.1,8.169,7.332,7.585,7.332,7.585l31.568-0.412
				c7.009,0.262,9.12-6.336,9.12-6.336l2.782-6.733c-2.022,0.69-4.368,1.826-7.076,3.61c0,0-14.185,9.948-26.3,8.076
				c0,0-16.942-3.644-14.085-20.292c0,0,4.333-15.66,20.684-11.031c-0.098,0.099,4.925,0.69,5.812,8.963
				c-0.098,0.295,0.099,9.949-8.864,2.267c0.098,0,8.569,4.826,6.796-2.364c0.099,0.196-1.576-7.782-9.456-5.518
				c0,0.099-10.342,1.645-8.472,12.002c0,0.017,2.856,10.949,15.169,6.418c0,0,5.319-1.87,8.569-4.136c0,0,3.083-2.301,6.931-4.567
				c-6.114-2.492-8.408-8.637-8.408-8.637c-0.669-2.011-1.11-4.025-1.386-6.003c-0.5-0.021-1.023-0.06-1.576-0.122
				c0,0-4.637-0.083-7.737-7.108c-0.032-0.037-1.164-4.852-1.5-7.477c-0.186-1.458-1.228-3.591-3.799-4.488
				c0.033,0.019,5.147,0.277,6.817,4.06c0,0,1.866,5.368,2.34,6.435c0,0,2.083,3.684,5.121,4.944
				c-0.01-0.25-0.019-0.498-0.024-0.744c-3.504-1.445-5.198-5.904-5.174-5.816c-0.503-1.876-2.069-5.313-1.968-5.271
				c-3.305-5.608-12.128-3.753-11.995-3.673c-8.186,2.216-6.656,6.757-6.666,6.896c1.066,4.684,6.076,2.943,6.184,2.915
				c3.547-0.797,1.802-4.76,1.909-4.788c2.891,3.556-0.972,5.867-0.94,5.903c-8.693,3.961-10.418-3.738-10.423-3.667
				c-1.554-9.151,8.65-12.272,8.613-12.24c9.921-4.124,14.533,3.817,14.539,3.749c2.605,2.173,3.181,8.847,3.185,8.778
				c0.688,2.271,1.751,3.371,2.796,3.868c0.462-8.156,3.057-14.274,3.057-14.274c1.95-5.12,2.387-7.748,2.387-7.748
				c1.527-11.603-5.898-10.203-5.898-10.203c-5.472,1.535-4.392,7.798-4.392,7.798c-1.872-7.155,2.607-8.403,2.574-8.571
				c4.512-2.394,7.646,0.569,7.628,0.485c6.638,5.588,1.271,18.574,1.355,18.557c-1.916,6.362-2.066,12.077-1.746,16.2
				c0.043,0.057,0.083,0.11,0.125,0.165c0.115-9.069,4.939-13.601,4.868-13.673c9.357-8.373,18.616-1.575,18.616-1.575
				c-11.672-2.123-14.824,4.73-14.775,4.73c0.443,1.823-0.937,2.512-0.789,2.561c-0.493,0.099-0.443,1.576-0.394,1.626
				c1.133,0.443,0.591,2.363,0.493,2.363c-0.444,0.197,0.492,1.576,0.492,1.576c2.216,0.985,1.626,3.152,1.626,3.152
				s0.59,0.689,0.492,0.838c2.462-0.739,2.856,2.61,2.856,2.61s0.788,0.59,0.788,0.689c3.004-1.281,3.397,1.818,3.397,1.818
				l5.127,1.78l5.532-13.391C71.734,29.441,66.812,24.722,66.812,24.722z"/>
			<circle fill="#FDD835" cx="43.694" cy="57.183" r="0.893"/>
			<circle fill="#FDD835" cx="41.043" cy="55.179" r="0.727"/>
		</g>
	</g>
</g>
<g id="Layer_2">
	<g>
		<path fill="#FDD835" d="M95.417,65.407c-0.523-0.378-1.267-0.566-2.23-0.566h-11.5l-1.32,3.269
			c-0.419,1.047-0.921,1.77-1.508,2.168c-0.587,0.397-1.341,0.597-2.262,0.597c-0.796,0-1.32-0.231-1.571-0.691
			c-0.251-0.461-0.063-1.486,0.565-3.079l5.53-14.202c0.461-1.089,0.911-1.832,1.352-2.231c0.439-0.397,1.183-0.597,2.23-0.597
			c0.754,0,1.288,0.262,1.602,0.786c0.314,0.524,0.304,1.163-0.031,1.916l-1.508,4.086h10.996c1.089,0,2.074-0.188,2.953-0.565
			c0.881-0.377,1.487-1.068,1.823-2.074c0.084-0.251,0.125-0.438,0.125-0.565c1.132-4.817,0.575-8.524-1.665-11.123
			c-2.241-2.596-5.876-3.896-10.902-3.896h-2.765c-4.44,0-8.211,1.225-11.311,3.676c-3.102,2.451-5.447,5.708-7.038,9.771
			c-0.839,2.053-1.551,3.854-2.137,5.403c-0.587,1.55-1.09,2.87-1.508,3.959c-0.46,1.257-0.88,2.367-1.256,3.331
			c-1.257,3.1-1.823,5.687-1.697,7.76c0.126,2.073,0.691,3.74,1.697,4.995c1.005,1.258,2.325,2.147,3.958,2.672
			c1.634,0.522,3.351,0.785,5.153,0.785h6.347c2.219,0,4.178-0.138,5.875-0.409c1.697-0.273,3.227-0.857,4.588-1.758
			c1.36-0.901,2.617-2.21,3.77-3.93c1.152-1.717,2.335-3.999,3.55-6.847l0.251-0.629C95.993,66.454,95.941,65.783,95.417,65.407z"/>
		<path fill="#FDD835" d="M134.377,65.217c0.271-0.671,0.534-1.32,0.786-1.949c0.251-0.629,0.534-1.35,0.848-2.167
			c0.314-0.817,0.763-1.957,1.352-3.425c1.171-3.017,1.769-5.707,1.79-8.074c0.021-2.367-0.47-4.368-1.477-6.001
			c-1.004-1.634-2.492-2.869-4.461-3.708c-1.968-0.838-4.356-1.257-7.163-1.257h-2.828c-4.442,0-8.2,1.225-11.279,3.676
			c-3.079,2.451-5.435,5.708-7.069,9.771c-0.838,2.053-1.55,3.854-2.137,5.403s-1.09,2.87-1.508,3.959
			c-0.461,1.257-0.88,2.367-1.257,3.331c-1.257,3.1-1.822,5.687-1.695,7.76c0.125,2.073,0.69,3.74,1.695,4.995
			c1.006,1.258,2.335,2.147,3.99,2.672c1.654,0.522,3.382,0.785,5.185,0.785h6.284c2.221,0,4.179-0.138,5.875-0.409
			c1.698-0.273,3.226-0.857,4.587-1.758c1.361-0.901,2.618-2.21,3.771-3.93c1.152-1.717,2.335-3.999,3.55-6.847
			C133.718,66.831,134.104,65.887,134.377,65.217z M124.229,52.774l-5.906,15.335c-0.419,1.047-0.934,1.77-1.54,2.168
			c-0.608,0.397-1.373,0.597-2.294,0.597c-0.796,0-1.32-0.231-1.57-0.691c-0.251-0.461-0.063-1.486,0.565-3.079l5.529-14.202
			c0.461-1.089,0.921-1.832,1.383-2.231c0.459-0.397,1.214-0.597,2.262-0.597c0.711,0,1.234,0.262,1.571,0.786
			C124.563,51.382,124.563,52.021,124.229,52.774z"/>
		<path fill="#FDD835" d="M187.255,39.39l-10.997,26.958c-0.293,0.713-0.807,1.342-1.54,1.886c-0.733,0.545-1.455,0.815-2.168,0.815
			c-0.711,0-1.215-0.271-1.507-0.815c-0.295-0.544-0.274-1.173,0.063-1.886l10.368-26.958h-13.762l-10.997,26.958
			c-0.294,0.713-0.807,1.342-1.54,1.886c-0.733,0.545-1.457,0.815-2.168,0.815c-0.714,0-1.216-0.271-1.508-0.815
			c-0.293-0.544-0.273-1.173,0.063-1.886l9.992-26.958h-13.385l-16.213,40.907h18.161c2.177,0,4.147-0.251,5.906-0.753
			c1.76-0.502,3.331-1.131,4.713-1.885c0.964,0.796,2.168,1.435,3.613,1.917c1.444,0.481,3.215,0.721,5.31,0.721h0.691h14.327
			l16.213-40.907H187.255z"/>
		<path fill="#FDD835" d="M210.756,31.034c-0.964,0-1.864,0.272-2.701,0.816c-0.839,0.544-1.468,1.299-1.887,2.262l-18.851,46.186
			h13.51l20.107-49.264H210.756z"/>
		<path fill="#FDD835" d="M238.341,30.971h-10.18c-0.964,0-1.865,0.282-2.701,0.848c-0.839,0.566-1.467,1.331-1.886,2.293
			l-0.817,2.136h13.447L238.341,30.971z"/>
		<polygon fill="#FDD835" points="221.5,39.39 204.848,80.297 218.295,80.297 234.947,39.39 		"/>
		<path fill="#FDD835" d="M266.806,48.816c0.125-1.298,0-2.523-0.377-3.676c-0.378-1.152-1.091-2.146-2.138-2.984
			c-1.047-0.837-2.472-1.509-4.271-2.011c-1.802-0.503-4.064-0.755-6.787-0.755h-14.831L221.94,80.297h13.697l10.997-27.02
			c0.334-0.712,0.869-1.341,1.604-1.887c0.731-0.542,1.453-0.816,2.167-0.816c0.712,0,1.203,0.274,1.476,0.816
			c0.272,0.546,0.262,1.175-0.031,1.887l-10.053,27.02h13.384l11.06-28.15C266.617,51.1,266.806,49.989,266.806,48.816z"/>
		<path fill="#FDD835" d="M287.479,39.39c-4.441,0-8.211,1.226-11.311,3.677c-3.1,2.45-5.446,5.708-7.039,9.771
			c-0.837,2.011-1.539,3.771-2.104,5.277c-0.565,1.51-1.036,2.745-1.413,3.708c-0.461,1.174-0.837,2.158-1.133,2.954
			c-1.256,3.1-1.821,5.687-1.694,7.76c0.125,2.073,0.69,3.74,1.694,4.995c1.007,1.258,2.336,2.147,3.992,2.672
			c1.654,0.522,3.382,0.785,5.183,0.785h5.217l-8.044,13.195c2.765,0.588,5.467,0.502,8.106-0.251
			c1.131-0.294,2.314-0.754,3.551-1.383c1.234-0.629,2.45-1.477,3.646-2.545c1.192-1.068,2.355-2.398,3.485-3.99
			c1.133-1.592,2.179-3.498,3.142-5.719L308.97,39.39H287.479z M288.422,53.53l-5.593,14.579c-0.42,1.047-0.934,1.77-1.541,2.168
			c-0.606,0.397-1.372,0.597-2.293,0.597c-0.797,0-1.319-0.231-1.57-0.691c-0.251-0.461-0.063-1.486,0.564-3.079l5.28-13.511
			c0.46-1.048,0.91-1.769,1.35-2.169c0.441-0.397,1.184-0.596,2.23-0.596c0.754,0,1.289,0.261,1.604,0.786
			C288.767,52.136,288.757,52.774,288.422,53.53z"/>
		<g>
			<path fill="#FDD835" d="M89.123,12.348c1.608,0,2.999,0.218,4.172,0.653c1.173,0.437,2.078,1.051,2.715,1.844
				c0.636,0.793,0.988,1.754,1.055,2.881c0.067,1.129-0.179,2.386-0.737,3.771h-5.931c-0.425,0-0.783-0.089-1.073-0.268
				c-0.291-0.179-0.38-0.503-0.269-0.973c0.045-0.089,0.095-0.228,0.151-0.418c0.057-0.189,0.095-0.307,0.118-0.352
				c0.134-0.491,0.179-0.905,0.134-1.24c-0.045-0.335-0.291-0.503-0.737-0.503c-0.559,0-0.972,0.124-1.24,0.369
				c-0.267,0.247-0.458,0.503-0.569,0.771c-0.291,0.627-0.274,1.163,0.05,1.609c0.323,0.448,0.798,0.872,1.423,1.274
				c0.626,0.402,1.313,0.81,2.062,1.223c0.749,0.414,1.402,0.9,1.961,1.458c0.557,0.559,0.944,1.223,1.155,1.995
				c0.213,0.771,0.084,1.703-0.385,2.797c-0.447,1.073-0.956,1.973-1.525,2.699c-0.57,0.726-1.246,1.312-2.027,1.76
				c-0.782,0.447-1.693,0.765-2.732,0.955c-1.039,0.189-2.262,0.285-3.67,0.285c-1.609,0-2.999-0.213-4.172-0.637
				c-1.173-0.424-2.078-1.033-2.714-1.827c-0.638-0.793-0.994-1.754-1.073-2.882c-0.077-1.128,0.174-2.397,0.754-3.804h5.899
				c0.491,0,0.859,0.111,1.105,0.335c0.245,0.224,0.268,0.692,0.067,1.407c-0.045,0.179-0.078,0.313-0.1,0.402
				c-0.112,0.447-0.141,0.826-0.084,1.139c0.056,0.313,0.297,0.469,0.721,0.469c0.826,0,1.384-0.346,1.676-1.039
				c0.268-0.603,0.246-1.128-0.067-1.576c-0.313-0.446-0.776-0.871-1.391-1.274c-0.615-0.401-1.285-0.814-2.011-1.239
				c-0.726-0.424-1.362-0.922-1.91-1.491c-0.547-0.57-0.927-1.246-1.14-2.028c-0.212-0.781-0.083-1.73,0.385-2.848
				c0.425-1.072,0.922-1.972,1.491-2.698c0.57-0.726,1.252-1.312,2.045-1.759c0.792-0.447,1.709-0.765,2.747-0.956
				C86.492,12.443,87.715,12.348,89.123,12.348z"/>
			<path fill="#FDD835" d="M113.823,15.498l-2.313,5.698h-5.965l-5.43,13.372H92.91l10.054-24.633
				c0.177-0.447,0.507-0.838,0.989-1.173c0.479-0.335,0.977-0.502,1.491-0.502h5.395l-2.982,7.239H113.823z"/>
			<path fill="#FDD835" d="M128.987,12.868c0.973,0.347,1.754,0.86,2.346,1.542c0.591,0.681,0.973,1.513,1.14,2.497
				c0.167,0.983,0.105,2.111-0.184,3.385l-0.102,0.268c-0.291,0.96-0.676,1.821-1.156,2.581c-0.481,0.759-1.112,1.407-1.894,1.943
				c-0.783,0.536-1.738,0.961-2.866,1.273c-1.128,0.313-2.475,0.492-4.038,0.537l2.345-7.004c0.179-0.402,0.184-0.742,0.017-1.022
				c-0.167-0.279-0.452-0.419-0.855-0.419c-0.558,0-0.961,0.106-1.207,0.318c-0.245,0.213-0.479,0.609-0.703,1.191l-3.116,7.943
				c-0.247,0.692-0.285,1.139-0.118,1.339c0.167,0.202,0.441,0.302,0.82,0.302c1.073,0,2.24-0.011,3.502-0.034
				c1.263-0.021,2.519-0.19,3.77-0.502h0.067c0.022,0,0.034-0.005,0.034-0.017c0-0.011,0.011-0.016,0.033-0.016
				c0.201-0.045,0.431-0.079,0.687-0.101c0.257-0.021,0.486-0.011,0.687,0.034s0.347,0.129,0.436,0.251
				c0.089,0.123,0.079,0.318-0.034,0.586c0,0.045-0.017,0.096-0.05,0.151c-0.033,0.056-0.051,0.096-0.051,0.117
				c-0.559,1.073-1.122,1.934-1.691,2.582c-0.571,0.648-1.19,1.145-1.861,1.491c-0.67,0.347-1.414,0.575-2.228,0.687
				c-0.817,0.111-1.749,0.168-2.799,0.168h-3.385c-0.961,0-1.877-0.14-2.748-0.419c-0.871-0.279-1.575-0.754-2.112-1.425
				c-0.535-0.67-0.837-1.558-0.904-2.664c-0.067-1.106,0.225-2.485,0.871-4.14c0.201-0.513,0.425-1.106,0.67-1.776
				c0.223-0.581,0.498-1.285,0.821-2.111c0.325-0.826,0.709-1.787,1.157-2.882c0.849-2.167,2.1-3.905,3.753-5.212
				s3.664-1.96,6.032-1.96h1.475C126.87,12.348,128.015,12.521,128.987,12.868z"/>
			<path fill="#FDD835" d="M157.49,12.75l-17.126,21.817h-8.042l2.546-21.817h5.362c0.469,0,0.838,0.124,1.106,0.368
				c0.268,0.247,0.369,0.626,0.301,1.14l0.034-0.034l-1.14,9.92l8.211-10.523c0.178-0.223,0.414-0.424,0.703-0.603
				c0.29-0.179,0.581-0.268,0.872-0.268H157.49z"/>
			<path fill="#FDD835" d="M169.707,12.868c0.97,0.347,1.752,0.86,2.346,1.542c0.591,0.681,0.972,1.513,1.138,2.497
				c0.168,0.983,0.106,2.111-0.184,3.385l-0.101,0.268c-0.291,0.96-0.676,1.821-1.156,2.581c-0.481,0.759-1.111,1.407-1.893,1.943
				c-0.783,0.536-1.739,0.961-2.866,1.273c-1.129,0.313-2.476,0.492-4.038,0.537l2.345-7.004c0.181-0.402,0.185-0.742,0.018-1.022
				c-0.169-0.279-0.452-0.419-0.855-0.419c-0.56,0-0.961,0.106-1.206,0.318c-0.247,0.213-0.479,0.609-0.703,1.191l-3.117,7.943
				c-0.246,0.692-0.286,1.139-0.117,1.339c0.167,0.202,0.441,0.302,0.821,0.302c1.072,0,2.239-0.011,3.502-0.034
				c1.261-0.021,2.519-0.19,3.77-0.502h0.068c0.021,0,0.033-0.005,0.033-0.017c0-0.011,0.011-0.016,0.033-0.016
				c0.201-0.045,0.43-0.079,0.686-0.101c0.258-0.021,0.486-0.011,0.689,0.034c0.2,0.044,0.345,0.129,0.435,0.251
				c0.089,0.123,0.078,0.318-0.033,0.586c0,0.045-0.018,0.096-0.051,0.151c-0.033,0.056-0.05,0.096-0.05,0.117
				c-0.559,1.073-1.123,1.934-1.692,2.582c-0.57,0.648-1.189,1.145-1.859,1.491c-0.671,0.347-1.415,0.575-2.229,0.687
				c-0.815,0.111-1.749,0.168-2.799,0.168h-3.384c-0.962,0-1.876-0.14-2.749-0.419c-0.871-0.279-1.575-0.754-2.111-1.425
				c-0.537-0.67-0.838-1.558-0.905-2.664c-0.067-1.106,0.223-2.485,0.871-4.14c0.202-0.513,0.426-1.106,0.671-1.776
				c0.224-0.581,0.496-1.285,0.822-2.111c0.322-0.826,0.708-1.787,1.156-2.882c0.848-2.167,2.1-3.905,3.754-5.212
				c1.652-1.307,3.664-1.96,6.033-1.96h1.473C167.589,12.348,168.733,12.521,169.707,12.868z"/>
		</g>
		<g>
			<path fill="#FDD835" d="M11.161,96.151c0.095,0.006,0.162,0.028,0.201,0.066c0.038,0.039,0.057,0.081,0.057,0.125
				c0,0.051-0.019,0.095-0.057,0.135c-0.039,0.038-0.083,0.057-0.134,0.057h-0.029c-0.536-0.045-1.005-0.266-1.407-0.661
				c-0.447-0.452-0.671-0.996-0.671-1.627v-3.83c0-0.633,0.226-1.173,0.676-1.623c0.45-0.45,0.991-0.676,1.622-0.676h2.107
				c0.05,0,0.095,0.019,0.133,0.058c0.039,0.039,0.058,0.083,0.058,0.135v8.616h-0.01v0.395c0,0.63-0.225,1.172-0.674,1.621
				c-0.451,0.451-0.992,0.676-1.623,0.676c-0.632,0-1.172-0.224-1.618-0.671c-0.051-0.051-0.077-0.104-0.077-0.161
				c0-0.053,0.019-0.096,0.057-0.135c0.039-0.037,0.083-0.058,0.134-0.058s0.102,0.022,0.153,0.068
				c0.37,0.375,0.82,0.563,1.35,0.563c0.536,0,0.989-0.188,1.359-0.563c0.37-0.378,0.556-0.699,0.556-0.968h0.01V88.5h-1.916
				c-0.53,0-0.981,0.188-1.354,0.561c-0.374,0.373-0.561,0.825-0.561,1.355v3.83c0,0.53,0.188,0.979,0.565,1.35
				C10.375,95.909,10.739,96.093,11.161,96.151z"/>
			<path fill="#FDD835" d="M17.738,96.361c0,0.052-0.02,0.096-0.057,0.135c-0.038,0.038-0.083,0.057-0.134,0.057
				s-0.096-0.019-0.134-0.057c-0.038-0.039-0.057-0.083-0.057-0.135v-6.328c0-0.524,0.188-0.974,0.564-1.352
				c0.377-0.376,0.827-0.564,1.351-0.564c0.057,0,0.105,0.019,0.144,0.058c0.037,0.039,0.056,0.083,0.056,0.135
				c0,0.051-0.019,0.096-0.056,0.133c-0.039,0.039-0.087,0.058-0.144,0.058c-0.428,0-0.79,0.149-1.087,0.446
				s-0.446,0.659-0.446,1.087V96.361z"/>
			<path fill="#FDD835" d="M24.059,96.543c-0.632,0-1.173-0.226-1.624-0.675c-0.449-0.45-0.674-0.992-0.674-1.623v-0.776
				c0-0.632,0.223-1.174,0.67-1.628c0.402-0.395,0.868-0.615,1.397-0.661c0.077,0,0.134,0.021,0.173,0.059
				c0.038,0.038,0.058,0.084,0.058,0.133c0,0.053-0.017,0.097-0.048,0.136c-0.039,0.038-0.077,0.058-0.116,0.058
				c-0.459,0.031-0.855,0.216-1.187,0.555c-0.376,0.37-0.565,0.82-0.565,1.35v0.776c0,0.53,0.188,0.981,0.561,1.354
				s0.825,0.561,1.355,0.561h1.915v-5.927c-0.006-0.53-0.195-0.981-0.565-1.356c-0.371-0.373-0.824-0.56-1.36-0.56
				c-0.523,0-0.982,0.192-1.379,0.575c-0.032,0.038-0.073,0.057-0.124,0.057c-0.051,0-0.096-0.019-0.134-0.057
				c-0.038-0.038-0.057-0.084-0.057-0.135s0.019-0.095,0.057-0.135c0.459-0.466,1.005-0.698,1.637-0.698
				c0.632,0,1.174,0.226,1.624,0.675c0.45,0.45,0.677,0.995,0.685,1.634v6.118c0,0.051-0.02,0.096-0.058,0.134
				c-0.039,0.038-0.083,0.058-0.134,0.058H24.059z"/>
			<path fill="#FDD835" d="M32.092,96.17c0.453-0.038,0.842-0.224,1.168-0.556c0.377-0.371,0.564-0.821,0.564-1.351v-3.84
				c0-0.529-0.187-0.98-0.56-1.355c-0.374-0.373-0.825-0.559-1.354-0.559h-1.916v11.298c0,0.052-0.019,0.096-0.057,0.134
				c-0.039,0.04-0.083,0.058-0.135,0.058c-0.05,0-0.096-0.018-0.134-0.058c-0.038-0.038-0.058-0.082-0.058-0.134v-11.49
				c0-0.05,0.02-0.096,0.058-0.133c0.038-0.04,0.083-0.059,0.134-0.059h2.107c0.631,0,1.173,0.226,1.623,0.676
				c0.45,0.45,0.675,0.99,0.675,1.622v3.84c0,0.633-0.224,1.175-0.671,1.629c-0.402,0.4-0.871,0.622-1.407,0.659
				c-0.07,0-0.125-0.019-0.162-0.057c-0.039-0.039-0.058-0.083-0.058-0.135c0-0.051,0.019-0.096,0.058-0.134
				C32.005,96.189,32.047,96.17,32.092,96.17z"/>
			<path fill="#FDD835" d="M38.038,88.51v7.842c0,0.051-0.019,0.096-0.057,0.134c-0.039,0.038-0.083,0.058-0.135,0.058
				c-0.05,0-0.095-0.02-0.134-0.058c-0.038-0.038-0.058-0.083-0.058-0.134v-11.49c0-0.052,0.02-0.096,0.058-0.135
				c0.039-0.038,0.083-0.057,0.134-0.057c0.052,0,0.096,0.019,0.135,0.057c0.038,0.039,0.057,0.083,0.057,0.135v3.265h1.915
				c0.632,0,1.173,0.226,1.624,0.676s0.674,0.99,0.674,1.622v5.928c0,0.051-0.019,0.096-0.056,0.134
				c-0.04,0.038-0.083,0.058-0.135,0.058c-0.051,0-0.096-0.02-0.133-0.058c-0.039-0.038-0.057-0.083-0.057-0.134v-5.928
				c0-0.529-0.188-0.98-0.561-1.355c-0.374-0.373-0.825-0.559-1.355-0.559H38.038z"/>
			<path fill="#FDD835" d="M46.32,85.168c0.077,0.075,0.115,0.166,0.115,0.268s-0.039,0.192-0.115,0.268
				c-0.077,0.076-0.166,0.116-0.269,0.116c-0.102,0-0.191-0.04-0.268-0.116c-0.077-0.075-0.115-0.166-0.115-0.268
				s0.038-0.192,0.115-0.268c0.077-0.077,0.166-0.116,0.268-0.116C46.154,85.052,46.244,85.091,46.32,85.168z M46.244,96.352
				c0,0.051-0.019,0.096-0.057,0.134c-0.039,0.038-0.083,0.058-0.135,0.058c-0.05,0-0.095-0.02-0.134-0.058
				c-0.038-0.038-0.057-0.083-0.057-0.134v-8.043c0-0.052,0.019-0.096,0.057-0.135c0.039-0.039,0.083-0.058,0.134-0.058
				c0.051,0,0.096,0.019,0.135,0.058c0.038,0.039,0.057,0.083,0.057,0.135V96.352z"/>
			<path fill="#FDD835" d="M53.368,95.787c0.057-0.05,0.111-0.077,0.162-0.077c0.052,0,0.096,0.02,0.134,0.06
				c0.039,0.037,0.058,0.081,0.058,0.132c0,0.057-0.029,0.116-0.086,0.173c-0.446,0.446-0.986,0.671-1.618,0.671
				c-0.632,0-1.173-0.225-1.623-0.675c-0.45-0.451-0.675-0.991-0.675-1.623v-4.233c0-0.631,0.225-1.173,0.675-1.622
				c0.45-0.45,0.991-0.676,1.623-0.676c0.632,0,1.172,0.224,1.618,0.671c0.058,0.058,0.086,0.115,0.086,0.172
				c0,0.051-0.019,0.097-0.058,0.135c-0.038,0.038-0.082,0.057-0.134,0.057c-0.051,0-0.105-0.025-0.162-0.076
				c-0.371-0.377-0.821-0.564-1.351-0.564c-0.536,0-0.989,0.188-1.359,0.564c-0.371,0.377-0.556,0.827-0.556,1.351v4.213
				c0,0.523,0.186,0.974,0.556,1.35c0.37,0.378,0.823,0.565,1.359,0.565C52.547,96.352,52.997,96.165,53.368,95.787z"/>
			<path fill="#FDD835" d="M63.526,88.5c-0.453,0.039-0.842,0.225-1.167,0.557c-0.377,0.369-0.565,0.819-0.565,1.349v3.841
				c0,0.53,0.187,0.981,0.56,1.354c0.374,0.373,0.825,0.561,1.355,0.561h1.915V84.862c0-0.052,0.02-0.096,0.058-0.135
				c0.039-0.038,0.083-0.057,0.134-0.057s0.096,0.019,0.134,0.057c0.039,0.039,0.058,0.083,0.058,0.135v11.49
				c0,0.051-0.019,0.096-0.058,0.134c-0.038,0.038-0.083,0.058-0.134,0.058h-2.106c-0.632,0-1.172-0.226-1.623-0.675
				c-0.45-0.45-0.675-0.992-0.675-1.623v-3.841c0-0.632,0.223-1.173,0.67-1.627c0.402-0.402,0.871-0.623,1.408-0.661
				c0.07,0,0.125,0.019,0.163,0.058s0.057,0.083,0.057,0.135c0,0.051-0.019,0.096-0.057,0.133
				C63.613,88.481,63.572,88.5,63.526,88.5z"/>
			<path fill="#FDD835" d="M71.934,92.713c-0.052,0-0.096-0.02-0.134-0.058c-0.038-0.038-0.058-0.084-0.058-0.135
				c0-0.05,0.02-0.095,0.058-0.133c0.039-0.038,0.083-0.059,0.134-0.059h1.723v-2.105c0-0.53-0.186-0.981-0.56-1.354
				c-0.374-0.374-0.826-0.561-1.355-0.561s-0.981,0.187-1.354,0.561c-0.373,0.373-0.561,0.824-0.561,1.354v4.213
				c0,0.523,0.186,0.974,0.556,1.35c0.37,0.378,0.823,0.565,1.359,0.565c0.53,0,0.98-0.188,1.35-0.565
				c0.051-0.045,0.103-0.067,0.154-0.067c0.051,0,0.096,0.02,0.134,0.058c0.038,0.039,0.057,0.083,0.057,0.135
				c0,0.058-0.025,0.111-0.076,0.162c-0.447,0.446-0.987,0.671-1.619,0.671c-0.631,0-1.173-0.225-1.622-0.675
				c-0.451-0.451-0.676-0.991-0.676-1.623v-4.223c0-0.633,0.226-1.174,0.676-1.624c0.449-0.449,0.991-0.675,1.622-0.675
				c0.632,0,1.173,0.226,1.624,0.675c0.45,0.45,0.675,0.991,0.675,1.624v2.297c0,0.046-0.02,0.087-0.058,0.125
				c-0.039,0.045-0.087,0.067-0.145,0.067H71.934z"/>
			<path fill="#FDD835" d="M80.638,88.874c0,0.051-0.02,0.096-0.058,0.133c-0.038,0.033-0.076,0.05-0.115,0.05
				c-0.07,0-0.137-0.036-0.201-0.106c-0.357-0.369-0.813-0.577-1.369-0.622c-0.083-0.007-0.164-0.01-0.24-0.01
				c-0.466,0-0.824,0.118-1.073,0.354c-0.389,0.275-0.594,0.694-0.613,1.255c0,0.806,0.721,1.584,2.165,2.337
				c1.161,0.593,1.742,1.379,1.742,2.356c-0.019,0.688-0.234,1.215-0.646,1.579s-0.94,0.546-1.584,0.546
				c-0.696-0.02-1.261-0.262-1.695-0.728c-0.057-0.064-0.086-0.124-0.086-0.183c0-0.051,0.019-0.096,0.057-0.133
				c0.038-0.033,0.077-0.049,0.116-0.049c0.07,0,0.14,0.041,0.209,0.124c0.37,0.358,0.827,0.552,1.371,0.584h0.171
				c0.454,0,0.83-0.107,1.13-0.325c0.396-0.357,0.6-0.839,0.613-1.447v-0.037c0-0.849-0.706-1.637-2.116-2.365
				c-1.194-0.65-1.79-1.409-1.79-2.278c0.018-0.626,0.245-1.111,0.679-1.456c0.421-0.325,0.932-0.488,1.532-0.488h0.114
				c0.632,0.025,1.163,0.269,1.59,0.728C80.606,88.762,80.638,88.822,80.638,88.874z"/>
			<path fill="#FDD835" d="M84.43,85.168c0.077,0.075,0.114,0.166,0.114,0.268s-0.038,0.192-0.114,0.268
				c-0.077,0.076-0.166,0.116-0.268,0.116c-0.103,0-0.192-0.04-0.269-0.116c-0.077-0.075-0.114-0.166-0.114-0.268
				s0.038-0.192,0.114-0.268c0.077-0.077,0.167-0.116,0.269-0.116C84.264,85.052,84.353,85.091,84.43,85.168z M84.353,96.352
				c0,0.051-0.019,0.096-0.057,0.134c-0.039,0.038-0.083,0.058-0.134,0.058c-0.052,0-0.096-0.02-0.135-0.058
				c-0.039-0.038-0.058-0.083-0.058-0.134v-8.043c0-0.052,0.019-0.096,0.058-0.135c0.039-0.039,0.083-0.058,0.135-0.058
				c0.051,0,0.095,0.019,0.134,0.058c0.038,0.039,0.057,0.083,0.057,0.135V96.352z"/>
			<path fill="#FDD835" d="M89.869,96.151c0.095,0.006,0.163,0.028,0.201,0.066c0.038,0.039,0.057,0.081,0.057,0.125
				c0,0.051-0.02,0.095-0.057,0.135c-0.039,0.038-0.083,0.057-0.134,0.057h-0.029c-0.535-0.045-1.005-0.266-1.407-0.661
				c-0.446-0.452-0.67-0.996-0.67-1.627v-3.83c0-0.633,0.225-1.173,0.675-1.623s0.991-0.676,1.623-0.676h2.106
				c0.051,0,0.096,0.019,0.134,0.058s0.057,0.083,0.057,0.135v8.616h-0.009v0.395c0,0.63-0.225,1.172-0.675,1.621
				c-0.451,0.451-0.991,0.676-1.623,0.676s-1.171-0.224-1.618-0.671c-0.051-0.051-0.076-0.104-0.076-0.161
				c0-0.053,0.019-0.096,0.057-0.135c0.039-0.037,0.083-0.058,0.133-0.058c0.052,0,0.102,0.022,0.154,0.068
				c0.37,0.375,0.82,0.563,1.35,0.563c0.536,0,0.989-0.188,1.36-0.563c0.37-0.378,0.555-0.699,0.555-0.968h0.01V88.5h-1.915
				c-0.53,0-0.981,0.188-1.355,0.561s-0.56,0.825-0.56,1.355v3.83c0,0.53,0.188,0.979,0.565,1.35
				C89.083,95.909,89.448,96.093,89.869,96.151z"/>
			<path fill="#FDD835" d="M96.638,96.352c0,0.051-0.019,0.096-0.058,0.134c-0.038,0.038-0.083,0.058-0.134,0.058
				s-0.096-0.02-0.134-0.058s-0.058-0.083-0.058-0.134v-8.043c0-0.052,0.02-0.096,0.058-0.135s0.083-0.058,0.134-0.058h2.107
				c0.631,0,1.172,0.226,1.622,0.676s0.675,0.99,0.675,1.623v5.937c0,0.051-0.019,0.096-0.058,0.134
				c-0.038,0.038-0.083,0.058-0.134,0.058c-0.051,0-0.095-0.02-0.133-0.058s-0.058-0.083-0.058-0.134v-5.937
				c0-0.53-0.187-0.982-0.56-1.355S99.083,88.5,98.554,88.5h-1.916V96.352z"/>
			<path fill="#FDD835" d="M106.596,92.713c-0.051,0-0.096-0.02-0.134-0.058s-0.057-0.084-0.057-0.135
				c0-0.05,0.019-0.095,0.057-0.133s0.083-0.059,0.134-0.059h1.723v-2.105c0-0.53-0.186-0.981-0.56-1.354
				c-0.374-0.374-0.825-0.561-1.354-0.561c-0.53,0-0.982,0.187-1.356,0.561c-0.373,0.373-0.56,0.824-0.56,1.354v4.213
				c0,0.523,0.186,0.974,0.555,1.35c0.37,0.378,0.824,0.565,1.36,0.565c0.529,0,0.979-0.188,1.349-0.565
				c0.051-0.045,0.103-0.067,0.154-0.067c0.05,0,0.095,0.02,0.133,0.058c0.038,0.039,0.058,0.083,0.058,0.135
				c0,0.058-0.026,0.111-0.076,0.162c-0.448,0.446-0.987,0.671-1.618,0.671c-0.632,0-1.173-0.225-1.624-0.675
				c-0.45-0.451-0.675-0.991-0.675-1.623v-4.223c0-0.633,0.225-1.174,0.675-1.624c0.45-0.449,0.991-0.675,1.624-0.675
				c0.631,0,1.173,0.226,1.623,0.675c0.449,0.45,0.675,0.991,0.675,1.624v2.297c0,0.046-0.019,0.087-0.058,0.125
				c-0.039,0.045-0.087,0.067-0.144,0.067H106.596z"/>
			<path fill="#FDD835" d="M112.15,96.361c0,0.052-0.019,0.096-0.058,0.135c-0.038,0.038-0.083,0.057-0.134,0.057
				c-0.051,0-0.096-0.019-0.134-0.057c-0.039-0.039-0.058-0.083-0.058-0.135v-6.328c0-0.524,0.188-0.974,0.565-1.352
				c0.376-0.376,0.827-0.564,1.351-0.564c0.057,0,0.105,0.019,0.143,0.058s0.058,0.083,0.058,0.135c0,0.051-0.02,0.096-0.058,0.133
				c-0.038,0.039-0.086,0.058-0.143,0.058c-0.428,0-0.791,0.149-1.087,0.446c-0.297,0.297-0.445,0.659-0.445,1.087V96.361z"/>
			<path fill="#FDD835" d="M125.479,88.375c-0.025,0.038-0.051,0.07-0.077,0.096c-0.045,0.039-0.093,0.057-0.144,0.057
				c-0.051,0-0.096-0.018-0.134-0.057c-0.039-0.038-0.057-0.082-0.057-0.134c0-0.045,0.028-0.102,0.086-0.173
				c0.166-0.217,0.281-0.385,0.345-0.506c0.16-0.264,0.24-0.557,0.24-0.883c0-0.478-0.167-0.885-0.503-1.221
				c-0.335-0.335-0.743-0.503-1.221-0.503c-0.479,0-0.885,0.171-1.216,0.508c-0.333,0.339-0.498,0.744-0.498,1.216
				c0,0.23,0.042,0.464,0.124,0.7c0.167,0.428,0.997,1.895,2.49,4.403c0.02,0.033,0.028,0.065,0.028,0.097
				c0,0.051-0.018,0.096-0.057,0.134c-0.039,0.038-0.083,0.058-0.134,0.058c-0.044,0-0.092-0.022-0.144-0.066
				c-0.019-0.02-0.035-0.045-0.048-0.077l-0.833-1.475l-1.675,2.097c-0.339,0.396-0.514,0.861-0.526,1.397
				c0,0.595,0.205,1.095,0.613,1.504c0.409,0.408,0.906,0.613,1.493,0.613s1.085-0.208,1.494-0.623
				c0.172-0.172,0.306-0.357,0.402-0.555l0.278-0.546l1.178-2.834c0.013-0.027,0.032-0.056,0.058-0.087
				c0.038-0.031,0.083-0.048,0.134-0.048c0.051,0,0.096,0.019,0.134,0.057c0.039,0.04,0.058,0.084,0.058,0.135
				c0,0.032-0.013,0.069-0.039,0.115l-1.073,2.46l1.15,2.021c0.018,0.032,0.029,0.067,0.029,0.104c0,0.052-0.02,0.096-0.058,0.135
				c-0.039,0.038-0.084,0.057-0.134,0.057c-0.051,0-0.096-0.022-0.134-0.066c-0.032-0.026-0.055-0.058-0.067-0.096l-0.911-1.61
				c-0.331,0.532-0.577,0.876-0.737,1.036c-0.491,0.484-1.078,0.728-1.762,0.728c-0.683,0-1.269-0.244-1.757-0.733
				c-0.488-0.488-0.732-1.073-0.732-1.756c0-0.595,0.185-1.114,0.556-1.562l1.828-2.316c-0.766-1.245-1.238-2.069-1.417-2.471
				c-0.134-0.281-0.201-0.591-0.201-0.93c0-0.579,0.206-1.076,0.617-1.488c0.412-0.411,0.909-0.617,1.49-0.617
				c0.58,0,1.077,0.206,1.489,0.617c0.412,0.412,0.618,0.909,0.618,1.488c0,0.448-0.118,0.844-0.354,1.188
				C125.696,88.066,125.6,88.204,125.479,88.375z"/>
			<path fill="#FDD835" d="M135.705,88.117h1.522c0.051,0,0.096,0.019,0.133,0.058c0.039,0.039,0.058,0.083,0.058,0.135
				c0,0.051-0.019,0.096-0.058,0.133c-0.038,0.039-0.083,0.058-0.133,0.058h-1.522v7.843c0,0.057-0.021,0.105-0.062,0.144
				s-0.088,0.058-0.139,0.058c-0.044,0-0.086-0.02-0.125-0.058c-0.038-0.038-0.058-0.083-0.058-0.134V88.5h-0.391
				c-0.053,0-0.096-0.019-0.135-0.058c-0.039-0.037-0.058-0.082-0.058-0.133c0-0.052,0.019-0.096,0.058-0.135
				c0.039-0.039,0.082-0.058,0.135-0.058h0.391v-1.522c0-0.536,0.188-0.99,0.561-1.363c0.374-0.374,0.826-0.561,1.355-0.561
				c0.05,0,0.096,0.019,0.134,0.057c0.038,0.039,0.057,0.083,0.057,0.135c0,0.051-0.02,0.095-0.057,0.134
				c-0.039,0.038-0.084,0.057-0.134,0.057c-0.434,0-0.798,0.151-1.091,0.451c-0.294,0.299-0.44,0.664-0.44,1.091V88.117z"/>
			<path fill="#FDD835" d="M140.109,96.361c0,0.052-0.019,0.096-0.057,0.135c-0.039,0.038-0.084,0.057-0.134,0.057
				c-0.051,0-0.096-0.019-0.134-0.057c-0.039-0.039-0.058-0.083-0.058-0.135v-6.328c0-0.524,0.189-0.974,0.564-1.352
				c0.377-0.376,0.828-0.564,1.351-0.564c0.058,0,0.105,0.019,0.144,0.058s0.057,0.083,0.057,0.135c0,0.051-0.019,0.096-0.057,0.133
				c-0.039,0.039-0.085,0.058-0.144,0.058c-0.428,0-0.791,0.149-1.088,0.446c-0.296,0.297-0.444,0.659-0.444,1.087V96.361z"/>
			<path fill="#FDD835" d="M145.279,88.107c0.051,0,0.096,0.02,0.134,0.058c0.038,0.039,0.058,0.083,0.058,0.135
				c0,0.05-0.017,0.096-0.048,0.134c-0.025,0.019-0.042,0.032-0.048,0.038c-0.103,0.071-0.201,0.152-0.297,0.249
				c-0.377,0.369-0.565,0.82-0.565,1.351v4.51c0,0.529,0.188,0.979,0.565,1.35c0.096,0.096,0.201,0.182,0.316,0.259
				c0.006,0.006,0.013,0.01,0.019,0.01c0.038,0.045,0.058,0.093,0.058,0.144s-0.02,0.095-0.058,0.135
				c-0.038,0.038-0.083,0.057-0.134,0.057c-0.044,0-0.083-0.01-0.115-0.028c-0.127-0.083-0.249-0.182-0.364-0.298
				c-0.447-0.452-0.67-0.996-0.67-1.627v-4.51c0-0.633,0.223-1.175,0.67-1.629c0.122-0.114,0.243-0.214,0.364-0.297
				C145.196,88.121,145.235,88.107,145.279,88.107z M147.53,88.5c-0.038-0.019-0.065-0.038-0.077-0.058
				c-0.045-0.037-0.067-0.082-0.067-0.133c0-0.052,0.019-0.096,0.058-0.135c0.038-0.039,0.083-0.058,0.134-0.058
				c0.052,0,0.092,0.013,0.125,0.038c0.121,0.083,0.239,0.18,0.354,0.287c0.447,0.454,0.67,0.996,0.67,1.629v4.51
				c0,0.631-0.223,1.175-0.67,1.627c-0.121,0.121-0.248,0.228-0.382,0.316c-0.025,0.014-0.058,0.02-0.097,0.02
				c-0.051,0-0.096-0.02-0.134-0.058c-0.039-0.038-0.058-0.083-0.058-0.134c0-0.052,0.019-0.099,0.058-0.145
				c0.013-0.013,0.022-0.019,0.029-0.019c0.102-0.07,0.205-0.155,0.307-0.259c0.377-0.371,0.565-0.82,0.565-1.35v-4.51
				c0-0.53-0.188-0.981-0.565-1.351C147.715,88.651,147.632,88.577,147.53,88.5z"/>
			<path fill="#FDD835" d="M152.556,96.352c0,0.051-0.018,0.096-0.056,0.134c-0.039,0.038-0.083,0.058-0.135,0.058
				c-0.05,0-0.096-0.02-0.134-0.058c-0.038-0.038-0.058-0.083-0.058-0.134v-8.043c0-0.052,0.021-0.096,0.058-0.135
				c0.038-0.039,0.083-0.058,0.134-0.058h2.107c0.632,0,1.173,0.226,1.624,0.676s0.674,0.99,0.674,1.623v5.937
				c0,0.051-0.019,0.096-0.057,0.134c-0.038,0.038-0.083,0.058-0.134,0.058c-0.051,0-0.097-0.02-0.134-0.058
				c-0.039-0.038-0.059-0.083-0.059-0.134v-5.937c0-0.53-0.187-0.982-0.56-1.355s-0.825-0.561-1.354-0.561h-1.916V96.352z"/>
			<path fill="#FDD835" d="M162.323,88.117c0.051,0,0.095,0.019,0.135,0.058c0.038,0.039,0.057,0.083,0.057,0.135
				c0,0.051-0.019,0.096-0.057,0.133c-0.04,0.039-0.084,0.058-0.135,0.058h-1.532v6.129c0,0.428,0.149,0.79,0.446,1.086
				c0.296,0.297,0.658,0.446,1.086,0.446c0.057,0,0.105,0.019,0.144,0.057c0.038,0.039,0.058,0.083,0.058,0.135
				c0,0.051-0.02,0.096-0.058,0.134s-0.087,0.058-0.144,0.058c-0.524,0-0.974-0.188-1.351-0.565
				c-0.376-0.376-0.563-0.827-0.563-1.35V88.5h-0.394c-0.052,0-0.096-0.019-0.134-0.058c-0.039-0.037-0.056-0.082-0.056-0.133
				c0-0.052,0.017-0.096,0.056-0.135c0.038-0.039,0.082-0.058,0.134-0.058h0.394V86.02c0-0.051,0.019-0.097,0.057-0.134
				c0.038-0.038,0.083-0.059,0.134-0.059c0.052,0,0.096,0.021,0.135,0.059c0.038,0.037,0.057,0.083,0.057,0.134v2.097H162.323z"/>
			<path fill="#FDD835" d="M164.803,90.797c-0.052,0-0.096-0.019-0.133-0.057c-0.039-0.037-0.059-0.083-0.059-0.134
				c0-0.052,0.02-0.096,0.059-0.135c0.037-0.038,0.081-0.057,0.133-0.057h2.308c0.051,0,0.097,0.019,0.135,0.057
				c0.038,0.039,0.058,0.083,0.058,0.135c0,0.051-0.02,0.097-0.058,0.134c-0.038,0.038-0.084,0.057-0.135,0.057H164.803z"/>
			<path fill="#FDD835" d="M172.473,92.713c-0.051,0-0.096-0.02-0.134-0.058s-0.057-0.084-0.057-0.135
				c0-0.05,0.019-0.095,0.057-0.133s0.083-0.059,0.134-0.059h1.724v-2.105c0-0.53-0.187-0.981-0.561-1.354
				c-0.373-0.374-0.823-0.561-1.354-0.561s-0.983,0.187-1.356,0.561c-0.374,0.373-0.561,0.824-0.561,1.354v4.213
				c0,0.523,0.186,0.974,0.555,1.35c0.371,0.378,0.824,0.565,1.362,0.565c0.53,0,0.979-0.188,1.349-0.565
				c0.052-0.045,0.102-0.067,0.154-0.067c0.05,0,0.095,0.02,0.133,0.058c0.038,0.039,0.059,0.083,0.059,0.135
				c0,0.058-0.026,0.111-0.077,0.162c-0.447,0.446-0.987,0.671-1.617,0.671c-0.633,0-1.175-0.225-1.624-0.675
				c-0.45-0.451-0.675-0.991-0.675-1.623v-4.223c0-0.633,0.225-1.174,0.675-1.624c0.449-0.449,0.991-0.675,1.624-0.675
				c0.63,0,1.172,0.226,1.622,0.675c0.45,0.45,0.675,0.991,0.675,1.624v2.297c0,0.046-0.019,0.087-0.057,0.125
				c-0.039,0.045-0.088,0.067-0.145,0.067H172.473z"/>
			<path fill="#FDD835" d="M178.219,96.352c0,0.051-0.021,0.096-0.059,0.134c-0.038,0.038-0.084,0.058-0.135,0.058
				s-0.095-0.02-0.135-0.058c-0.038-0.038-0.055-0.083-0.055-0.134v-8.043c0-0.052,0.017-0.096,0.055-0.135
				c0.04-0.039,0.084-0.058,0.135-0.058h2.107c0.633,0,1.172,0.226,1.623,0.676c0.45,0.45,0.674,0.99,0.674,1.623v5.937
				c0,0.051-0.018,0.096-0.057,0.134c-0.038,0.038-0.083,0.058-0.133,0.058c-0.053,0-0.097-0.02-0.135-0.058
				c-0.039-0.038-0.059-0.083-0.059-0.134v-5.937c0-0.53-0.186-0.982-0.561-1.355c-0.373-0.373-0.825-0.561-1.354-0.561h-1.914
				V96.352z"/>
			<path fill="#FDD835" d="M187.812,88.5c-0.452,0.039-0.843,0.225-1.169,0.557c-0.376,0.369-0.565,0.819-0.565,1.349v3.841
				c0,0.53,0.188,0.981,0.561,1.354c0.375,0.373,0.825,0.561,1.355,0.561h1.915V84.862c0-0.052,0.02-0.096,0.059-0.135
				c0.037-0.038,0.081-0.057,0.134-0.057c0.051,0,0.096,0.019,0.133,0.057c0.039,0.039,0.059,0.083,0.059,0.135v11.49
				c0,0.051-0.02,0.096-0.059,0.134c-0.037,0.038-0.082,0.058-0.133,0.058h-2.107c-0.632,0-1.173-0.226-1.623-0.675
				c-0.45-0.45-0.674-0.992-0.674-1.623v-3.841c0-0.632,0.222-1.173,0.669-1.627c0.402-0.402,0.871-0.623,1.408-0.661
				c0.07,0,0.124,0.019,0.163,0.058c0.038,0.039,0.057,0.083,0.057,0.135c0,0.051-0.019,0.096-0.057,0.133
				C187.897,88.481,187.855,88.5,187.812,88.5z"/>
			<path fill="#FDD835" d="M200.834,88.5c-0.453,0.039-0.843,0.225-1.168,0.557c-0.378,0.369-0.566,0.819-0.566,1.349v3.841
				c0,0.53,0.188,0.981,0.561,1.354s0.825,0.561,1.355,0.561h1.914V84.862c0-0.052,0.02-0.096,0.059-0.135
				c0.038-0.038,0.082-0.057,0.134-0.057c0.051,0,0.096,0.019,0.134,0.057c0.038,0.039,0.058,0.083,0.058,0.135v11.49
				c0,0.051-0.02,0.096-0.058,0.134s-0.083,0.058-0.134,0.058h-2.106c-0.633,0-1.174-0.226-1.624-0.675
				c-0.449-0.45-0.675-0.992-0.675-1.623v-3.841c0-0.632,0.224-1.173,0.67-1.627c0.402-0.402,0.871-0.623,1.409-0.661
				c0.07,0,0.123,0.019,0.162,0.058s0.058,0.083,0.058,0.135c0,0.051-0.019,0.096-0.058,0.133
				C200.919,88.481,200.877,88.5,200.834,88.5z"/>
			<path fill="#FDD835" d="M209.24,92.713c-0.052,0-0.096-0.02-0.135-0.058c-0.038-0.038-0.057-0.084-0.057-0.135
				c0-0.05,0.019-0.095,0.057-0.133c0.039-0.038,0.083-0.059,0.135-0.059h1.724v-2.105c0-0.53-0.187-0.981-0.56-1.354
				c-0.375-0.374-0.825-0.561-1.355-0.561c-0.529,0-0.981,0.187-1.356,0.561c-0.373,0.373-0.559,0.824-0.559,1.354v4.213
				c0,0.523,0.185,0.974,0.555,1.35c0.372,0.378,0.824,0.565,1.36,0.565c0.53,0,0.979-0.188,1.35-0.565
				c0.051-0.045,0.103-0.067,0.153-0.067c0.052,0,0.097,0.02,0.134,0.058c0.038,0.039,0.059,0.083,0.059,0.135
				c0,0.058-0.027,0.111-0.076,0.162c-0.447,0.446-0.987,0.671-1.619,0.671s-1.173-0.225-1.623-0.675
				c-0.449-0.451-0.675-0.991-0.675-1.623v-4.223c0-0.633,0.226-1.174,0.675-1.624c0.45-0.449,0.991-0.675,1.623-0.675
				s1.173,0.226,1.622,0.675c0.451,0.45,0.676,0.991,0.676,1.624v2.297c0,0.046-0.019,0.087-0.058,0.125
				c-0.038,0.045-0.086,0.067-0.144,0.067H209.24z"/>
			<path fill="#FDD835" d="M216.144,96.361c-0.02,0.059-0.041,0.103-0.065,0.135c-0.04,0.031-0.085,0.048-0.135,0.048
				c-0.046,0-0.086-0.017-0.125-0.048c-0.031-0.039-0.055-0.093-0.067-0.163l-2.288-7.957c-0.006-0.019-0.01-0.041-0.01-0.066
				c0-0.052,0.019-0.096,0.058-0.135c0.038-0.039,0.082-0.058,0.134-0.058c0.058,0,0.102,0.017,0.135,0.048
				c0.024,0.025,0.041,0.049,0.047,0.067l2.127,7.487l2.124-7.449c0.008-0.038,0.026-0.07,0.059-0.096
				c0.038-0.039,0.082-0.058,0.134-0.058c0.05,0,0.092,0.019,0.124,0.053c0.032,0.035,0.049,0.081,0.049,0.14
				c0,0.051-0.007,0.092-0.021,0.124L216.144,96.361z"/>
			<path fill="#FDD835" d="M223.22,92.713c-0.051,0-0.096-0.02-0.134-0.058s-0.057-0.084-0.057-0.135
				c0-0.05,0.019-0.095,0.057-0.133s0.083-0.059,0.134-0.059h1.724v-2.105c0-0.53-0.187-0.981-0.561-1.354
				c-0.373-0.374-0.825-0.561-1.354-0.561c-0.53,0-0.983,0.187-1.356,0.561c-0.373,0.373-0.56,0.824-0.56,1.354v4.213
				c0,0.523,0.186,0.974,0.555,1.35c0.371,0.378,0.824,0.565,1.361,0.565c0.528,0,0.979-0.188,1.35-0.565
				c0.051-0.045,0.101-0.067,0.153-0.067c0.052,0,0.095,0.02,0.133,0.058c0.039,0.039,0.059,0.083,0.059,0.135
				c0,0.058-0.026,0.111-0.077,0.162c-0.447,0.446-0.986,0.671-1.617,0.671c-0.633,0-1.174-0.225-1.624-0.675
				c-0.45-0.451-0.674-0.991-0.674-1.623v-4.223c0-0.633,0.224-1.174,0.674-1.624c0.45-0.449,0.991-0.675,1.624-0.675
				c0.631,0,1.173,0.226,1.622,0.675c0.449,0.45,0.675,0.991,0.675,1.624v2.297c0,0.046-0.018,0.087-0.057,0.125
				c-0.039,0.045-0.088,0.067-0.145,0.067H223.22z"/>
			<path fill="#FDD835" d="M228.582,84.862c0-0.052,0.02-0.096,0.057-0.135c0.039-0.038,0.084-0.057,0.135-0.057
				s0.097,0.019,0.134,0.057c0.038,0.039,0.059,0.083,0.059,0.135v11.49c0,0.051-0.021,0.096-0.059,0.134
				c-0.037,0.038-0.083,0.058-0.134,0.058s-0.096-0.02-0.135-0.058c-0.037-0.038-0.057-0.083-0.057-0.134V84.862z"/>
			<path fill="#FDD835" d="M233.562,88.107c0.05,0,0.095,0.02,0.135,0.058c0.037,0.039,0.057,0.083,0.057,0.135
				c0,0.05-0.018,0.096-0.049,0.134c-0.025,0.019-0.041,0.032-0.048,0.038c-0.103,0.071-0.201,0.152-0.298,0.249
				c-0.374,0.369-0.563,0.82-0.563,1.351v4.51c0,0.529,0.189,0.979,0.563,1.35c0.097,0.096,0.203,0.182,0.316,0.259
				c0.007,0.006,0.014,0.01,0.021,0.01c0.037,0.045,0.057,0.093,0.057,0.144s-0.02,0.095-0.057,0.135
				c-0.04,0.038-0.085,0.057-0.135,0.057c-0.046,0-0.084-0.01-0.115-0.028c-0.127-0.083-0.248-0.182-0.364-0.298
				c-0.446-0.452-0.67-0.996-0.67-1.627v-4.51c0-0.633,0.224-1.175,0.67-1.629c0.121-0.114,0.242-0.214,0.364-0.297
				C233.478,88.121,233.516,88.107,233.562,88.107z M235.811,88.5c-0.037-0.019-0.063-0.038-0.076-0.058
				c-0.045-0.037-0.067-0.082-0.067-0.133c0-0.052,0.019-0.096,0.059-0.135c0.038-0.039,0.082-0.058,0.135-0.058
				c0.05,0,0.092,0.013,0.123,0.038c0.121,0.083,0.238,0.18,0.354,0.287c0.446,0.454,0.67,0.996,0.67,1.629v4.51
				c0,0.631-0.224,1.175-0.67,1.627c-0.121,0.121-0.25,0.228-0.383,0.316c-0.026,0.014-0.059,0.02-0.095,0.02
				c-0.053,0-0.097-0.02-0.135-0.058c-0.04-0.038-0.059-0.083-0.059-0.134c0-0.052,0.019-0.099,0.059-0.145
				c0.012-0.013,0.021-0.019,0.028-0.019c0.103-0.07,0.203-0.155,0.307-0.259c0.377-0.371,0.564-0.82,0.564-1.35v-4.51
				c0-0.53-0.188-0.981-0.564-1.351C235.996,88.651,235.913,88.577,235.811,88.5z"/>
			<path fill="#FDD835" d="M242.935,96.17c0.454-0.038,0.843-0.224,1.168-0.556c0.378-0.371,0.565-0.821,0.565-1.351v-3.84
				c0-0.529-0.186-0.98-0.56-1.355c-0.372-0.373-0.825-0.559-1.355-0.559h-1.915v11.298c0,0.052-0.021,0.096-0.057,0.134
				c-0.039,0.04-0.085,0.058-0.135,0.058c-0.051,0-0.096-0.018-0.135-0.058c-0.037-0.038-0.056-0.082-0.056-0.134v-11.49
				c0-0.05,0.019-0.096,0.056-0.133c0.039-0.04,0.084-0.059,0.135-0.059h2.106c0.633,0,1.173,0.226,1.623,0.676
				s0.675,0.99,0.675,1.622v3.84c0,0.633-0.223,1.175-0.67,1.629c-0.402,0.4-0.872,0.622-1.408,0.659
				c-0.07,0-0.125-0.019-0.161-0.057c-0.04-0.039-0.059-0.083-0.059-0.135c0-0.051,0.019-0.096,0.059-0.134
				C242.848,96.189,242.89,96.17,242.935,96.17z"/>
			<path fill="#FDD835" d="M250.604,92.713c-0.051,0-0.095-0.02-0.134-0.058c-0.038-0.038-0.057-0.084-0.057-0.135
				c0-0.05,0.019-0.095,0.057-0.133c0.039-0.038,0.083-0.059,0.134-0.059h1.725v-2.105c0-0.53-0.187-0.981-0.561-1.354
				c-0.373-0.374-0.824-0.561-1.354-0.561s-0.981,0.187-1.355,0.561c-0.374,0.373-0.56,0.824-0.56,1.354v4.213
				c0,0.523,0.185,0.974,0.555,1.35c0.371,0.378,0.824,0.565,1.36,0.565c0.53,0,0.979-0.188,1.35-0.565
				c0.053-0.045,0.103-0.067,0.153-0.067c0.052,0,0.097,0.02,0.134,0.058c0.039,0.039,0.058,0.083,0.058,0.135
				c0,0.058-0.026,0.111-0.075,0.162c-0.447,0.446-0.987,0.671-1.619,0.671s-1.173-0.225-1.623-0.675
				c-0.45-0.451-0.674-0.991-0.674-1.623v-4.223c0-0.633,0.224-1.174,0.674-1.624c0.45-0.449,0.991-0.675,1.623-0.675
				s1.174,0.226,1.622,0.675c0.451,0.45,0.677,0.991,0.677,1.624v2.297c0,0.046-0.02,0.087-0.058,0.125
				c-0.039,0.045-0.088,0.067-0.146,0.067H250.604z"/>
			<path fill="#FDD835" d="M256.158,96.361c0,0.052-0.02,0.096-0.057,0.135c-0.039,0.038-0.084,0.057-0.135,0.057
				c-0.052,0-0.097-0.019-0.135-0.057c-0.038-0.039-0.057-0.083-0.057-0.135v-6.328c0-0.524,0.188-0.974,0.564-1.352
				c0.376-0.376,0.826-0.564,1.35-0.564c0.058,0,0.105,0.019,0.145,0.058c0.038,0.039,0.057,0.083,0.057,0.135
				c0,0.051-0.019,0.096-0.057,0.133c-0.039,0.039-0.087,0.058-0.145,0.058c-0.428,0-0.789,0.149-1.086,0.446
				c-0.298,0.297-0.445,0.659-0.445,1.087V96.361z"/>
		</g>
		<g>
			<circle fill="#FDD835" cx="32.924" cy="70.499" r="1.084"/>
			<circle fill="#FDD835" cx="37.285" cy="68.754" r="1.33"/>
			<circle fill="#FDD835" cx="29.55" cy="71.507" r="1.009"/>
			<path fill="#FDD835" d="M49.589,44.175c-8.94-10.416,1.551-17.435,1.551-17.435c-9.851,5.639-4.138,14.997-4.089,14.997
				c1.872,4.235,9.95,8.274,9.9,8.225c0.733,0.098,2.963,1.144,5.021,2.172l0.284-0.688c-2.286-1.083-4.785-2.174-4.813-2.174
				C53.109,47.351,49.736,44.249,49.589,44.175z"/>
			<circle fill="#FDD835" cx="41.767" cy="66.291" r="1.33"/>
			<path fill="#FDD835" d="M52.856,61.848c-0.64,0.078-1.258,0.123-1.852,0.132c0.231,0.197,0.53,0.322,0.859,0.322
				C52.26,62.302,52.613,62.125,52.856,61.848z"/>
			<path fill="#FDD835" d="M13.571,65.681c0.037,0.279-0.073,8.378,13.394,9.103c-0.099,0,7.682-0.936,12.46-3.596
				c0.124,0.124,10.253-6.613,18.029-8.118l0.295-0.713c-0.13-0.033-0.264-0.066-0.391-0.101c-0.94,0.128-1.851,0.336-2.666,0.658
				c-0.049-0.049-8.963,3.35-11.426,5.122c0.099,0.099-7.93,5.958-16.301,5.86C27.014,73.848,16.333,75.421,13.571,65.681z"/>
			<circle fill="#FDD835" cx="17.014" cy="68.925" r="0.49"/>
			<circle fill="#FDD835" cx="25.832" cy="72.518" r="0.886"/>
			<path fill="#FDD835" d="M50.994,59.973c-0.172,0.149-0.304,0.342-0.381,0.561c0.14,0.018,0.284,0.02,0.43-0.01
				c0.217-0.045,0.407-0.142,0.57-0.27C51.402,60.161,51.195,60.068,50.994,59.973z"/>
			<circle fill="#FDD835" cx="22.384" cy="72.222" r="0.591"/>
			<circle fill="#FDD835" cx="19.503" cy="71.065" r="0.566"/>
			
				<ellipse transform="matrix(0.4189 0.908 -0.908 0.4189 45.6796 -4.8385)" fill="#FDD835" cx="26.62" cy="33.27" rx="1.293" ry="0.844"/>
			<circle fill="#FDD835" cx="38.982" cy="52.431" r="0.754"/>
			<path fill="#FDD835" d="M34.426,43.296c-0.857-0.382-1.751-0.246-1.996,0.305c-0.244,0.549,0.253,1.304,1.11,1.685
				c0.733,0.327,1.49,0.271,1.847-0.096c-0.046-0.426-0.085-0.851-0.117-1.272C35.066,43.674,34.78,43.453,34.426,43.296z"/>
			<circle fill="#FDD835" cx="38.143" cy="49.523" r="0.642"/>
			
				<ellipse transform="matrix(0.7558 -0.6549 0.6549 0.7558 -13.3727 23.7926)" fill="#FDD835" cx="25.209" cy="29.823" rx="0.351" ry="0.906"/>
			
				<ellipse transform="matrix(0.6558 0.7549 -0.7549 0.6558 41.768 -8.3604)" fill="#FDD835" cx="30.053" cy="41.628" rx="1.681" ry="0.997"/>
			
				<ellipse transform="matrix(0.4044 0.9146 -0.9146 0.4044 51.1575 -3.1252)" fill="#FDD835" cx="27.978" cy="37.716" rx="1.588" ry="0.979"/>
			<path fill="#FDD835" d="M40.31,42.025c0.007,0.074,0.016,0.147,0.024,0.219c-0.003-0.074-0.008-0.15-0.011-0.224
				C40.32,42.022,40.314,42.024,40.31,42.025z"/>
			<circle fill="#FDD835" cx="46.815" cy="63.165" r="1.354"/>
			<path fill="#FDD835" d="M47.102,59.406c0.528-0.106,0.87-0.619,0.766-1.147c-0.404-0.259-0.779-0.518-1.125-0.772
				c-0.008,0.001-0.017,0-0.025,0.003c-0.529,0.104-0.873,0.62-0.766,1.149C46.058,59.168,46.572,59.511,47.102,59.406z"/>
			<path fill="#FDD835" d="M66.812,24.722L44.557,2.257c-5.603-5.079-10.264,0-10.264,0L4.917,25.298
				c-6.022,4.452-4.818,10.997-4.818,10.997l4.713,37.127c1.1,8.169,7.332,7.585,7.332,7.585l31.568-0.412
				c7.009,0.262,9.12-6.336,9.12-6.336l2.782-6.733c-2.022,0.69-4.368,1.826-7.076,3.61c0,0-14.185,9.948-26.3,8.076
				c0,0-16.942-3.644-14.085-20.292c0,0,4.333-15.66,20.684-11.031c-0.098,0.099,4.925,0.69,5.812,8.963
				c-0.098,0.295,0.099,9.949-8.864,2.267c0.098,0,8.569,4.826,6.796-2.364c0.099,0.196-1.576-7.782-9.456-5.518
				c0,0.099-10.342,1.645-8.472,12.002c0,0.017,2.856,10.949,15.169,6.418c0,0,5.319-1.87,8.569-4.136c0,0,3.083-2.301,6.931-4.567
				c-6.114-2.492-8.408-8.637-8.408-8.637c-0.669-2.011-1.11-4.025-1.386-6.003c-0.5-0.021-1.023-0.06-1.576-0.122
				c0,0-4.637-0.083-7.737-7.108c-0.032-0.037-1.164-4.852-1.5-7.477c-0.186-1.458-1.228-3.591-3.799-4.488
				c0.033,0.019,5.147,0.277,6.817,4.06c0,0,1.866,5.368,2.34,6.435c0,0,2.083,3.684,5.121,4.944
				c-0.01-0.25-0.019-0.498-0.024-0.744c-3.504-1.445-5.198-5.904-5.174-5.816c-0.503-1.876-2.069-5.313-1.968-5.271
				c-3.305-5.608-12.128-3.753-11.995-3.673c-8.186,2.216-6.656,6.757-6.666,6.896c1.066,4.684,6.076,2.943,6.184,2.915
				c3.547-0.797,1.802-4.76,1.909-4.788c2.891,3.556-0.972,5.867-0.94,5.903c-8.693,3.961-10.418-3.738-10.423-3.667
				c-1.554-9.151,8.65-12.272,8.613-12.24c9.921-4.124,14.533,3.817,14.539,3.749c2.605,2.173,3.181,8.847,3.185,8.778
				c0.688,2.271,1.751,3.371,2.796,3.868c0.462-8.156,3.057-14.274,3.057-14.274c1.95-5.12,2.387-7.748,2.387-7.748
				c1.527-11.603-5.898-10.203-5.898-10.203c-5.472,1.535-4.392,7.798-4.392,7.798c-1.872-7.155,2.607-8.403,2.574-8.571
				c4.512-2.394,7.646,0.569,7.628,0.485c6.638,5.588,1.271,18.574,1.355,18.557c-1.916,6.362-2.066,12.077-1.746,16.2
				c0.043,0.057,0.083,0.11,0.125,0.165c0.115-9.069,4.939-13.601,4.868-13.673c9.357-8.373,18.616-1.575,18.616-1.575
				c-11.672-2.123-14.824,4.73-14.775,4.73c0.443,1.823-0.937,2.512-0.789,2.561c-0.493,0.099-0.443,1.576-0.394,1.626
				c1.133,0.443,0.591,2.363,0.493,2.363c-0.444,0.197,0.492,1.576,0.492,1.576c2.216,0.985,1.626,3.152,1.626,3.152
				s0.59,0.689,0.492,0.838c2.462-0.739,2.856,2.61,2.856,2.61s0.788,0.59,0.788,0.689c3.004-1.281,3.397,1.818,3.397,1.818
				l5.127,1.78l5.532-13.391C71.734,29.441,66.812,24.722,66.812,24.722z"/>
			<circle fill="#FDD835" cx="43.694" cy="57.183" r="0.893"/>
			<circle fill="#FDD835" cx="41.043" cy="55.179" r="0.727"/>
		</g>
	</g>
</g>
</svg>
